<?xml version="1.0" encoding="UTF-8"?>
<svg id="Layer_1" data-name="Layer 1" xmlns="http://www.w3.org/2000/svg" viewBox="0 0 1080 1080">
  <defs>
    <style>
      .cls-1, .cls-2, .cls-3, .cls-4, .cls-5, .cls-6, .cls-7 {
        fill: #a8bed9;
      }

      .cls-8 {
        fill: #13162b;
      }

      .cls-2 {
        opacity: .6;
      }

      .cls-3 {
        opacity: .9;
      }

      .cls-4 {
        opacity: .7;
      }

      .cls-5 {
        opacity: .25;
      }

      .cls-6 {
        opacity: .45;
      }

      .cls-7 {
        opacity: .4;
      }
    </style>
  </defs>
  <path class="cls-8" d="m112.72,315.32c0-67.86,39.99-99.37,92.09-99.37,33.53,0,59.78,14.14,75.13,40.4,15.35-26.25,41.61-40.4,75.13-40.4,52.1,0,92.11,31.51,92.11,99.37v170.05h-51.7v-170.05c0-36.36-19.39-51.3-44.85-51.3s-44.84,15.35-44.84,51.3v170.05h-51.7v-170.05c0-35.96-19.38-51.3-44.84-51.3s-44.84,14.95-44.84,51.3v170.05h-51.7v-170.05Z"/>
  <path class="cls-8" d="m459.63,385.59c0-60.59,44.44-105.02,107.44-105.02,54.13,0,93.72,32.72,103.41,79.98h-48.47c-8.48-21.41-28.68-35.14-54.94-35.14-35.14,0-58.97,25.04-58.97,60.18s23.83,60.18,58.97,60.18c26.26,0,46.46-13.73,54.94-35.14h48.47c-9.69,47.27-49.28,79.98-103.41,79.98-63.01,0-107.44-44.42-107.44-105.02Z"/>
  <path class="cls-8" d="m191.49,573.01h-78.77v-48.07h209.24v48.07h-78.77v216.1h-51.7v-216.1Z"/>
  <path class="cls-8" d="m279.11,691.36c0-63.41,44.44-107.04,107.85-107.04s106.23,42.42,106.23,106.64v98.15h-44.02v-39.18c-12.13,29.49-39.19,44.42-70.69,44.42-48.48,0-99.37-34.73-99.37-103Zm166.02-2.02c0-35.14-23.43-60.18-58.57-60.18s-58.97,25.04-58.97,60.18,23.83,60.18,58.97,60.18,58.57-25.04,58.57-60.18Z"/>
  <path class="cls-8" d="m627.25,584.32c-28.68,0-52.51,12.12-66.64,34.34v-100.91c-14.41-.28-28.8-1.1-42.98-3.96-1.72-.35-3.4-.8-5.09-1.22v175.16c0,64.63,43.62,106.63,106.23,106.63s107.86-43.62,107.86-107.03c0-68.27-50.9-103.01-99.38-103.01Zm-8.07,165.21c-35.14,0-58.57-25.04-58.57-60.18s23.43-60.18,58.57-60.18,58.97,25.04,58.97,60.18-23.83,60.18-58.97,60.18Z"/>
  <g id="LI4Y9x.tif">
    <g>
      <path d="m916.78,699.94c.71-.28,1.51-.66,2.35-.92,6.56-1.99,13.12-3.96,19.99-6.02,4.21,11.71,8.37,23.17,12.46,34.65,4.5,12.66,8.95,25.34,13.39,38.02,6.78,19.39-1.63,37.85-21.01,44.83-45.66,16.43-91.42,32.58-137.16,48.77-5.02,1.78-10.11,3.77-15.33,4.47-16.13,2.17-30.41-6.71-36.45-22.43-4.22-10.97-8-22.1-11.96-33.17-4.57-12.79-9.04-25.62-13.75-38.36-1.25-3.39-1.1-5.26,2.87-6.33,4.55-1.23,9.09-2.79,13.32-4.86,4.36-2.13,5.71-.53,6.97,3.51,2.49,8.02,5.43,15.9,8.3,23.79,3.6,9.91,11.09,13.55,21.03,10.08,25.78-9.01,51.53-18.1,77.27-27.22,18.56-6.58,37.1-13.23,55.63-19.89,11.34-4.07,14.64-11.31,10.59-22.66-2.97-8.33-5.79-16.72-8.65-25.1-.09-.26.06-.59.13-1.15Zm-7.32,99.41c-1.54-4.69-3.11-8.82-4.22-13.06-.95-3.62-2.76-4.12-6.01-2.91-7.58,2.82-15.24,5.41-22.86,8.12-19.84,7.04-39.66,14.16-59.55,21.07-3.4,1.18-4.35,2.74-2.95,6.02,1.07,2.52,1.87,5.15,2.77,7.74,1.88,5.42,2.36,5.63,7.93,3.65,24.6-8.7,49.21-17.36,73.79-26.1,3.7-1.32,7.28-2.96,11.09-4.53Z"/>
      <path d="m655.26,559.83c-3.7-9.37-7.56-18.23-6.22-28.1,2.04-15.07,11.1-24.24,25.15-29.2,47.2-16.67,94.44-33.27,141.52-50.29,20.13-7.28,40.96,4.16,45.56,21.34,1.65,6.15,4.3,12.03,6.63,18.41-7.73,2.34-15.1,4.57-22.87,6.93-1.6-4.34-3.2-8.43-4.62-12.58-3.33-9.79-11.1-13.76-20.95-10.28-32.38,11.43-64.73,22.98-97.09,34.48-12.51,4.45-25.03,8.86-37.51,13.37-9,3.25-12.81,11.1-9.7,20.21,2.84,8.31,3.26,7.33-5.14,10.3-4.74,1.68-9.45,3.46-14.76,5.41Z"/>
    </g>
  </g>
  <g>
    <g>
      <path class="cls-1" d="m858.2,656.09c9.58-24.75,19.15-49.51,28.73-74.26,6.59-10.04,14.21-14.99,18.36-17.25,9.47-5.15,18.68-5.98,27.24-6.76,6.21-.56,11.38-.44,14.92-.24-4.24,11.64-8.44,26.15-11.03,43.12-2.06,13.5-2.67,25.73-2.56,36.2-4.81-.63-11.71-1.27-20-1.06-10.58.26-23.28.58-37.01,7.12-4.71,2.25-11.56,6.19-18.65,13.12Z"/>
      <path class="cls-1" d="m948.24,577.95c5.19,1.34,10.37,2.69,15.56,4.03-.73,32.42-1.46,64.84-2.19,97.27-15.43-8.68-29.12-12.68-38.4-14.69-12.84-2.78-22.99-4.78-34.03-.06-3.22,1.38-12.04,5.15-16.54,14.79-5.57,11.94-.22,23.67.66,25.52.99,2.09-16.81-15.5-13.01-33.43,1.9-8.97,7.69-14.87,10.87-17.54,2.39-2.01,9-6.95,29.12-8.39,9.44-.67,23.31-.68,40.05,2.95,2.64-23.48,5.28-46.97,7.92-70.45Z"/>
      <path class="cls-1" d="m847.2,649.78c10.49-24.24,20.97-48.48,31.46-72.72.79-3.87,1.57-10.02.32-17.29-1.42-8.25-4.76-13.89-9.47-21.68-3.05-5.04-7.72-11.92-14.54-19.34-3.26,4.75-6.6,9.51-10.02,14.3-12.49,17.48-25.15,33.88-37.81,49.26,4.29,4.38,8.67,9.34,12.95,14.93,14.37,18.73,22.43,37.6,27.1,52.55Z"/>
      <path class="cls-1" d="m822.2,523.63c-6.9,9.28-15.1,19.23-24.79,29.37-14.34,15-28.57,26.89-41.29,36.2,7,2.49,17.13,6.58,28.59,13.09,12.67,7.19,25.43,14.43,36.51,28.54,4.58,5.83,11.27,15.89,15.64,30.72,1.05-2.09,2.38-5.33,2.87-9.4,1.77-14.99-9.62-27.56-22.02-40.88-6-6.44-14.99-15.06-27.44-23.65,15.13-18.68,30.26-37.35,45.39-56.03-4.48-2.65-8.96-5.3-13.45-7.96Z"/>
    </g>
    <path class="cls-7" d="m956.02,500.82l-1.87,10.8c-.18,1.25-1.43,2.05-2.68,1.87l-10.71-1.87c-1.25-.18-2.05-1.43-1.87-2.68l1.87-10.71c.18-1.25,1.43-2.05,2.59-1.87l10.8,1.87c1.25.18,2.05,1.34,1.87,2.59Z"/>
    <path class="cls-2" d="m966.55,533.84l-2.95,17.31c-.18,1.25-1.34,2.05-2.59,1.87l-17.31-2.94c-1.25-.27-2.05-1.43-1.87-2.68l2.95-17.31c.27-1.16,1.43-2.05,2.68-1.78l17.31,2.94c1.16.18,2.05,1.34,1.78,2.59Z"/>
    <path class="cls-4" d="m945.85,550.08l-4.46,25.79c-.18,1.25-1.43,2.14-2.68,1.87l-25.79-4.46c-1.25-.18-2.05-1.34-1.87-2.59l4.46-25.79c.18-1.25,1.43-2.14,2.68-1.87l25.79,4.37c1.25.27,2.05,1.43,1.87,2.68Z"/>
    <path class="cls-6" d="m923.98,529.38l-3.03,17.31c-.18,1.25-1.34,2.05-2.59,1.87l-17.31-2.94c-1.25-.27-2.05-1.43-1.87-2.68l2.95-17.22c.27-1.25,1.43-2.14,2.68-1.87l17.31,2.94c1.25.18,2.05,1.43,1.87,2.59Z"/>
    <path class="cls-5" d="m892.48,511.17l-1.78,10.71c-.27,1.25-1.43,2.05-2.68,1.87l-10.71-1.87c-1.25-.18-2.05-1.34-1.87-2.59l1.87-10.8c.18-1.25,1.34-2.05,2.59-1.87l10.8,1.87c1.16.27,2.05,1.43,1.78,2.68Z"/>
    <path class="cls-3" d="m926.57,559.54l-3.48,26.06c-.18,1.25-1.25,2.05-2.5,1.96l-26.06-3.48c-1.25-.18-2.05-1.25-1.96-2.5l3.48-26.06c.18-1.16,1.25-2.05,2.5-1.96l26.06,3.48c1.25.18,2.05,1.25,1.96,2.5Z"/>
    <path class="cls-5" d="m937.01,520.9l-1.87,10.8c-.18,1.25-1.43,2.05-2.59,1.87l-10.8-1.87c-1.25-.18-2.05-1.43-1.87-2.59l1.87-10.8c.18-1.25,1.43-2.05,2.59-1.87l10.8,1.87c1.25.18,2.05,1.43,1.87,2.59Z"/>
  </g>
</svg>