<?xml version="1.0" encoding="UTF-8"?>
<svg id="Layer_1" data-name="Layer 1" xmlns="http://www.w3.org/2000/svg" viewBox="0 0 1080 1080">
  <defs>
    <style>
      .cls-1 {
        fill: #fff;
      }

      .cls-2, .cls-3, .cls-4, .cls-5, .cls-6, .cls-7, .cls-8 {
        fill: #a8bed9;
      }

      .cls-3 {
        opacity: .6;
      }

      .cls-4 {
        opacity: .9;
      }

      .cls-5 {
        opacity: .7;
      }

      .cls-6 {
        opacity: .25;
      }

      .cls-7 {
        opacity: .45;
      }

      .cls-8 {
        opacity: .4;
      }
    </style>
  </defs>
  <path class="cls-1" d="m134.92,258.23c0-64.34,37.91-94.21,87.31-94.21,31.79,0,56.68,13.41,71.23,38.3,14.55-24.89,39.45-38.3,71.23-38.3,49.4,0,87.32,29.87,87.32,94.21v161.22h-49.02v-161.22c0-34.47-18.39-48.64-42.52-48.64s-42.51,14.55-42.51,48.64v161.22h-49.02v-161.22c0-34.09-18.38-48.64-42.51-48.64s-42.51,14.17-42.51,48.64v161.22h-49.02v-161.22Z"/>
  <path class="cls-1" d="m463.8,324.86c0-57.44,42.13-99.56,101.86-99.56,51.31,0,88.85,31.02,98.04,75.82h-45.95c-8.04-20.29-27.19-33.31-52.08-33.31-33.32,0-55.91,23.73-55.91,57.05s22.59,57.06,55.91,57.06c24.9,0,44.04-13.01,52.08-33.32h45.95c-9.19,44.81-46.72,75.82-98.04,75.82-59.73,0-101.86-42.12-101.86-99.56Z"/>
  <path class="cls-1" d="m209.6,502.54h-74.68v-45.57h198.37v45.57h-74.68v204.88h-49.02v-204.88Z"/>
  <path class="cls-1" d="m292.67,614.74c0-60.12,42.13-101.48,102.25-101.48s100.71,40.21,100.71,101.1v93.05h-41.74v-37.14c-11.5,27.95-37.15,42.12-67.01,42.12-45.96,0-94.21-32.93-94.21-97.65Zm157.39-1.92c0-33.32-22.21-57.05-55.53-57.05s-55.91,23.73-55.91,57.05,22.59,57.06,55.91,57.06,55.53-23.74,55.53-57.06Z"/>
  <path class="cls-1" d="m622.72,513.26c-27.19,0-49.78,11.49-63.18,32.55v-95.67c-13.66-.26-27.3-1.05-40.75-3.76-1.63-.33-3.22-.76-4.82-1.16v166.06c0,61.27,41.36,101.09,100.71,101.09s102.25-41.36,102.25-101.47c0-64.72-48.25-97.66-94.21-97.66Zm-7.65,156.62c-33.32,0-55.53-23.74-55.53-57.06s22.21-57.05,55.53-57.05,55.91,23.74,55.91,57.05-22.59,57.06-55.91,57.06Z"/>
  <g id="LI4Y9x.tif">
    <g>
      <path class="cls-1" d="m897.2,622.87c.67-.27,1.43-.63,2.23-.87,6.22-1.89,12.44-3.75,18.95-5.71,3.99,11.1,7.94,21.96,11.81,32.85,4.27,12,8.48,24.02,12.69,36.04,6.43,18.38-1.55,35.89-19.92,42.5-43.29,15.57-86.67,30.89-130.03,46.23-4.76,1.68-9.58,3.58-14.53,4.24-15.29,2.06-28.83-6.36-34.56-21.27-4-10.4-7.58-20.95-11.33-31.44-4.34-12.13-8.57-24.29-13.03-36.37-1.18-3.21-1.04-4.99,2.72-6,4.32-1.17,8.62-2.64,12.63-4.6,4.14-2.02,5.42-.51,6.6,3.33,2.36,7.6,5.15,15.07,7.87,22.56,3.41,9.39,10.52,12.85,19.93,9.55,24.44-8.55,48.85-17.16,73.26-25.81,17.6-6.24,35.17-12.54,52.74-18.86,10.75-3.86,13.88-10.72,10.04-21.48-2.82-7.9-5.48-15.86-8.2-23.79-.08-.24.06-.56.13-1.09Zm-6.94,94.24c-1.46-4.44-2.95-8.36-4-12.39-.9-3.43-2.62-3.91-5.69-2.76-7.18,2.67-14.44,5.13-21.67,7.7-18.81,6.67-37.6,13.42-56.46,19.97-3.22,1.12-4.12,2.6-2.8,5.71,1.02,2.39,1.77,4.89,2.62,7.34,1.78,5.13,2.23,5.33,7.52,3.46,23.32-8.25,46.65-16.46,69.96-24.75,3.51-1.25,6.91-2.81,10.52-4.29Z"/>
      <path class="cls-1" d="m649.27,490.04c-3.51-8.88-7.17-17.28-5.9-26.64,1.93-14.29,10.52-22.98,23.84-27.68,44.75-15.81,89.53-31.54,134.16-47.68,19.09-6.9,38.83,3.95,43.19,20.23,1.56,5.83,4.08,11.4,6.29,17.45-7.33,2.22-14.32,4.34-21.69,6.57-1.52-4.12-3.04-7.99-4.38-11.93-3.16-9.28-10.53-13.04-19.86-9.75-30.7,10.84-61.37,21.78-92.04,32.69-11.86,4.22-23.73,8.4-35.56,12.68-8.54,3.09-12.14,10.52-9.19,19.16,2.69,7.88,3.09,6.94-4.87,9.77-4.49,1.59-8.96,3.28-14,5.13Z"/>
    </g>
  </g>
  <g>
    <g>
      <path class="cls-2" d="m841.67,581.3c9.08-23.47,18.16-46.94,27.24-70.4,6.24-9.52,13.48-14.21,17.4-16.35,8.98-4.88,17.71-5.67,25.82-6.41,5.88-.53,10.79-.42,14.15-.22-4.02,11.03-8,24.79-10.46,40.88-1.95,12.8-2.53,24.39-2.43,34.32-4.56-.6-11.1-1.2-18.96-1.01-10.03.25-22.07.55-35.08,6.75-4.47,2.13-10.96,5.87-17.68,12.44Z"/>
      <path class="cls-2" d="m927.03,507.22c4.92,1.28,9.83,2.55,14.75,3.83-.69,30.74-1.38,61.47-2.07,92.21-14.63-8.23-27.61-12.02-36.4-13.92-12.18-2.63-21.79-4.53-32.27-.06-3.05,1.31-11.42,4.88-15.68,14.02-5.28,11.32-.21,22.44.63,24.19.94,1.98-15.94-14.69-12.34-31.7,1.8-8.5,7.29-14.1,10.3-16.63,2.27-1.9,8.53-6.59,27.6-7.95,8.95-.64,22.1-.64,37.97,2.8,2.5-22.26,5-44.53,7.51-66.79Z"/>
      <path class="cls-2" d="m831.23,575.32c9.94-22.98,19.88-45.96,29.83-68.94.75-3.67,1.49-9.5.31-16.39-1.35-7.82-4.51-13.17-8.98-20.56-2.89-4.78-7.32-11.3-13.79-18.34-3.09,4.5-6.25,9.02-9.5,13.56-11.84,16.57-23.84,32.12-35.84,46.7,4.07,4.16,8.22,8.85,12.28,14.15,13.63,17.76,21.26,35.65,25.69,49.82Z"/>
      <path class="cls-2" d="m807.53,455.73c-6.55,8.8-14.32,18.23-23.5,27.84-13.59,14.22-27.09,25.5-39.14,34.32,6.64,2.36,16.24,6.24,27.11,12.41,12.01,6.82,24.11,13.68,34.61,27.06,4.34,5.53,10.68,15.07,14.83,29.13,1-1.98,2.26-5.05,2.72-8.91,1.68-14.21-9.12-26.12-20.88-38.76-5.69-6.11-14.21-14.28-26.02-22.43,14.34-17.71,28.69-35.41,43.03-53.12-4.25-2.51-8.5-5.03-12.75-7.54Z"/>
    </g>
    <path class="cls-8" d="m934.4,434.1l-1.78,10.24c-.17,1.18-1.35,1.95-2.54,1.78l-10.15-1.78c-1.18-.17-1.95-1.35-1.78-2.54l1.78-10.15c.17-1.18,1.35-1.95,2.45-1.78l10.24,1.78c1.18.17,1.95,1.27,1.78,2.45Z"/>
    <path class="cls-3" d="m944.38,465.4l-2.79,16.41c-.17,1.18-1.27,1.95-2.45,1.78l-16.41-2.79c-1.18-.25-1.95-1.35-1.78-2.54l2.79-16.41c.25-1.1,1.35-1.95,2.54-1.69l16.41,2.79c1.1.17,1.95,1.27,1.69,2.45Z"/>
    <path class="cls-5" d="m924.76,480.8l-4.23,24.45c-.17,1.18-1.35,2.03-2.54,1.78l-24.45-4.23c-1.18-.17-1.95-1.27-1.78-2.45l4.23-24.45c.17-1.18,1.35-2.03,2.54-1.78l24.45,4.15c1.18.25,1.95,1.35,1.78,2.54Z"/>
    <path class="cls-7" d="m904.03,461.17l-2.88,16.41c-.17,1.18-1.27,1.95-2.45,1.78l-16.41-2.79c-1.18-.25-1.95-1.35-1.78-2.54l2.79-16.33c.25-1.18,1.35-2.03,2.54-1.78l16.41,2.79c1.18.17,1.95,1.35,1.78,2.45Z"/>
    <path class="cls-6" d="m874.17,443.91l-1.69,10.15c-.25,1.18-1.35,1.95-2.54,1.78l-10.15-1.78c-1.18-.17-1.95-1.27-1.78-2.45l1.78-10.24c.17-1.18,1.27-1.95,2.45-1.78l10.24,1.78c1.1.25,1.95,1.35,1.69,2.54Z"/>
    <path class="cls-4" d="m906.48,489.76l-3.3,24.7c-.17,1.18-1.18,1.95-2.37,1.86l-24.7-3.3c-1.18-.17-1.95-1.18-1.86-2.37l3.3-24.7c.17-1.1,1.18-1.95,2.37-1.86l24.7,3.3c1.18.17,1.95,1.18,1.86,2.37Z"/>
    <path class="cls-6" d="m916.38,453.13l-1.78,10.24c-.17,1.18-1.35,1.95-2.45,1.78l-10.24-1.78c-1.18-.17-1.95-1.35-1.78-2.45l1.78-10.24c.17-1.18,1.35-1.95,2.45-1.78l10.24,1.78c1.18.17,1.95,1.35,1.78,2.45Z"/>
  </g>
  <g id="oAjPSf.tif">
    <g>
      <path class="cls-2" d="m591.44,863.52c-7.29,9.94-17.53,12.5-28.99,11.84-11.39-.65-21.03-4.68-27.16-14.88-2.97,2.41-5.54,4.95-8.53,6.82-8.03,5-17.08,6.94-26.38,7.54-7.86.5-15.76.5-23.64.75-10.53.33-19.71-2.19-25.57-12.17-9.03,11.14-21.64,11.68-34.28,12.17-8.01.31-15.58-1.13-21.89-6.35-2.65-2.19-4.75-5.03-7.17-7.64-14.49,11.41-32.19,12.62-49.73,13.75-16.55,1.06-33.1.41-49.29-3.83-7.97-2.09-15.45-5.32-21.85-10.6-7.66-6.32-12.11-14.55-12.42-24.41-.24-7.5.67-15.04,1.13-22.56.13-2.12,1.1-3.12,3.55-3,4.63.24,9.29.07,14.24.07-.8,4.93-1.7,9.37-2.21,13.84-1.49,13.26,4.05,22.33,16.51,27.56,7.36,3.09,15.14,4.54,23,4.91,15.87.74,31.79.61,47.46-2.25,6.02-1.1,11.87-3.57,17.51-6.05,5.37-2.36,7.73-7.06,7.79-12.94.04-3.58.41-7.16.48-10.75.04-2.03.85-2.71,2.86-2.59,2.62.16,5.26.16,7.89.03,2.07-.1,2.91.55,3.03,2.74.36,6.38.57,12.8,1.54,19.1,1.32,8.63,6.27,12.83,14.93,12.84,5.3,0,10.75-.2,15.85-1.44,7.17-1.73,10.91-7.2,11.81-14.33.67-5.28.88-10.62,1.13-15.94.1-2.09.47-3.23,2.98-2.98,2.5.26,5.06.12,7.59,0,2.19-.11,3.14.68,3.22,2.96.18,5.33.36,10.67.98,15.96.34,2.92,1.22,5.9,2.47,8.56,1.87,3.99,5.2,6.66,9.74,6.97,13.02.89,26.09,1.63,38.92-1.53,3.23-.8,6.47-2.29,9.23-4.15,7.45-5.03,9.57-13.89,4.73-21.44-2.72-4.25-6.4-8.06-10.21-11.43-5.74-5.07-12.05-9.51-17.99-14.38-3-2.46-5.97-5.03-8.49-7.95-7.36-8.5-5.58-20.26,4.1-25.97,4.31-2.55,9.12-4.3,13.8-6.18,16.77-6.72,33.58-13.35,50.38-19.99,1.15-.45,2.35-.77,3.9-1.26.22,1.17.52,2.07.54,2.97.1,4.27.09,8.53.21,12.8.06,1.93-.71,2.87-2.58,3.59-18.77,7.22-37.49,14.54-56.22,21.85-.53.21-1.04.48-1.95.91,1.05,1,1.88,1.9,2.81,2.66,7.3,5.96,14.46,12.12,21.98,17.79,11.71,8.84,19.06,19.85,20,34.86.47,7.53,4.23,13.75,11.93,15.5,5.54,1.26,11.61,1.32,17.29.61,5.01-.62,8.07-4.81,9.75-9.53,1.53-4.29,2.71-8.69,4.24-12.97,3.16-8.85,8.06-16.41,16.93-20.56,12.16-5.69,26.92-2.54,36.17,7.23,11.54,12.18,12.03,30.6,6.89,42.4-3.98,9.16-11.54,12.93-21.03,13.67-12.16.95-22.61-2.84-31.33-11.34-.49-.47-.99-.93-1.52-1.36-.21-.17-.51-.25-1.06-.5Zm29-4.03c3.29-.07,6.26-.54,8.91-2.91,4.48-4,4.18-8.81,3.14-13.9-1.96-9.55-10.01-15.4-18.95-13.8-6.89,1.24-13.73,10.1-13.19,17.13.04.47.13,1,.4,1.37,4.87,6.79,10.76,11.93,19.7,12.11Z"/>
      <path class="cls-2" d="m450.12,804.17c-4.27-4.25-8.34-8.23-12.29-12.34-.34-.35-.16-1.74.27-2.18,3.49-3.64,7.05-7.22,10.75-10.65.52-.48,2.32-.43,2.86.08,3.53,3.32,6.94,6.78,10.22,10.35.51.56.62,2.31.16,2.8-3.73,3.93-7.65,7.69-11.95,11.94Z"/>
      <path class="cls-2" d="m435.83,790.65c-4.44,4.56-8.61,8.85-13.2,13.57-4.13-4.25-8.2-8.37-12.15-12.6-.33-.36-.18-1.7.23-2.13,3.47-3.66,7.01-7.26,10.67-10.74.51-.48,2.19-.58,2.63-.15,4.07,3.98,7.99,8.11,11.82,12.06Z"/>
      <path class="cls-2" d="m313.14,902.34c2.27-2.08,4.73-4.14,6.95-6.42,1.95-2.01,3.64-4.27,5.37-6.33,5.17,5.11,9.54,9.42,13.99,13.81-4.3,4.13-8.62,8.27-13.1,12.58-4.06-4.19-8.34-8.61-13.2-13.63Z"/>
    </g>
  </g>
</svg>