<?xml version="1.0" encoding="UTF-8"?>
<svg id="Layer_1" data-name="Layer 1" xmlns="http://www.w3.org/2000/svg" viewBox="0 0 1080 1080">
  <defs>
    <style>
      .cls-1, .cls-2, .cls-3, .cls-4, .cls-5, .cls-6, .cls-7 {
        fill: #a8bed9;
      }

      .cls-8 {
        fill: #13162b;
      }

      .cls-2 {
        opacity: .6;
      }

      .cls-3 {
        opacity: .9;
      }

      .cls-4 {
        opacity: .7;
      }

      .cls-5 {
        opacity: .25;
      }

      .cls-6 {
        opacity: .45;
      }

      .cls-7 {
        opacity: .4;
      }
    </style>
  </defs>
  <g id="_2vbZbg.tif" data-name="2vbZbg.tif">
    <g>
      <path d="m731.77,652.52c15.37,0,29.18-.19,42.97.21,2,.06,5,2.48,5.72,4.47,10.14,28,20.91,55.82,29.61,84.27,10.49,34.34-5.33,65.02-39.17,77.17-87.5,31.44-175.1,62.57-262.82,93.37-34.52,12.12-67.68-2.5-80.04-36.21-26.69-72.8-52.26-146.01-78.28-219.05-.37-1.03-.62-2.1-1.24-4.21,15.04,0,29.55-.23,44.03.29,1.85.07,4.34,3.74,5.23,6.21,13.69,38.09,27.03,76.29,40.73,114.37,6.72,18.7,19.16,24.72,37.92,18.12,80.05-28.19,160.06-56.5,240-85.02,21.6-7.71,27.04-20.01,19.57-41.57-1.26-3.65-2.48-7.31-4.21-12.42Zm-24.62,145.99c-2.11-6.93-3.75-12.3-5.38-17.68-4.15-13.66-4.4-13.85-18.2-8.97-43.43,15.37-86.81,30.89-130.27,46.15-24.17,8.49-21.59,5.63-13.84,27.94,3.8,10.93,4.15,11.11,14.99,7.29,38.19-13.45,76.39-26.86,114.53-40.42,12.65-4.5,25.14-9.42,38.18-14.32Z"/>
      <path d="m319.41,437.98c-14.98,0-28.77.15-42.55-.17-1.96-.05-5.02-1.94-5.64-3.67-11.77-32.8-24.7-65.29-34.38-98.71-9.41-32.5,7.29-62.1,39.75-74.31,33.93-12.76,68.29-24.34,102.44-36.51,52.19-18.6,104.31-37.41,156.56-55.86,26.76-9.45,51.74-5.97,71.42,15.22,7.47,8.04,10.85,19.92,15.79,30.2.57,1.18-.26,4-1.37,4.87-10.99,8.69-22.18,17.14-33.84,26.06-1.85-5-3.41-9.19-4.94-13.4-7.26-19.91-19.84-26.1-39.73-19.05-67.04,23.76-134.03,47.65-201.04,71.49-13.25,4.71-26.57,9.22-39.74,14.12-18.74,6.97-24.78,19.77-18.16,38.81,10.8,31.07,21.87,62.04,32.82,93.06.74,2.11,1.41,4.24,2.62,7.85Z"/>
    </g>
  </g>
  <g>
    <path class="cls-8" d="m223.07,522.58c0-36.64,21.59-53.65,49.72-53.65,18.1,0,32.28,7.64,40.56,21.81,8.29-14.17,22.47-21.81,40.56-21.81,28.13,0,49.73,17.01,49.73,53.65v91.81h-27.91v-91.81c0-19.63-10.47-27.7-24.21-27.7s-24.21,8.29-24.21,27.7v91.81h-27.91v-91.81c0-19.41-10.47-27.7-24.21-27.7s-24.21,8.07-24.21,27.7v91.81h-27.91v-91.81Z"/>
    <path class="cls-8" d="m410.36,560.52c0-32.71,23.99-56.7,58.01-56.7,29.22,0,50.6,17.67,55.83,43.18h-26.17c-4.58-11.56-15.48-18.97-29.66-18.97-18.97,0-31.84,13.52-31.84,32.49s12.87,32.49,31.84,32.49c14.18,0,25.08-7.41,29.66-18.97h26.17c-5.23,25.52-26.61,43.18-55.83,43.18-34.02,0-58.01-23.98-58.01-56.7Z"/>
    <path class="cls-8" d="m568.01,497.72h-42.53v-25.95h112.97v25.95h-42.53v116.67h-27.91v-116.67Z"/>
    <path class="cls-8" d="m615.32,561.61c0-34.24,23.99-57.79,58.23-57.79s57.35,22.9,57.35,57.58v52.99h-23.77v-21.15c-6.55,15.92-21.16,23.98-38.16,23.98-26.17,0-53.65-18.75-53.65-55.61Zm89.63-1.09c0-18.97-12.65-32.49-31.62-32.49s-31.84,13.52-31.84,32.49,12.87,32.49,31.84,32.49,31.62-13.52,31.62-32.49Z"/>
    <path class="cls-8" d="m741.35,559.65v-100.1h25.95v62.81c7.63-12,20.5-18.54,35.98-18.54,26.17,0,53.65,18.76,53.65,55.61,0,34.23-23.99,57.79-58.23,57.79s-57.35-22.68-57.35-57.57Zm89.41.87c0-18.97-12.87-32.49-31.84-32.49s-31.62,13.52-31.62,32.49,12.65,32.49,31.62,32.49,31.84-13.52,31.84-32.49Z"/>
  </g>
  <g>
    <g>
      <path class="cls-1" d="m641.1,411.85c11.73-30.33,23.47-60.67,35.2-91,8.07-12.31,17.42-18.37,22.49-21.13,11.61-6.31,22.89-7.33,33.38-8.28,7.6-.69,13.95-.54,18.29-.29-5.2,14.26-10.35,32.04-13.52,52.84-2.52,16.54-3.27,31.53-3.14,44.37-5.9-.78-14.35-1.55-24.5-1.3-12.97.32-28.53.71-45.35,8.73-5.77,2.75-14.16,7.59-22.86,16.07Z"/>
      <path class="cls-1" d="m751.43,316.1c6.36,1.65,12.71,3.3,19.07,4.94-.89,39.73-1.78,79.46-2.68,119.19-18.91-10.64-35.69-15.54-47.05-18-15.74-3.4-28.17-5.86-41.71-.07-3.95,1.69-14.76,6.31-20.27,18.13-6.82,14.63-.27,29,.81,31.27,1.22,2.56-20.6-18.99-15.94-40.97,2.33-10.99,9.42-18.23,13.31-21.5,2.93-2.46,11.03-8.52,35.68-10.28,11.56-.82,28.57-.83,49.08,3.62,3.23-28.78,6.47-57.55,9.7-86.33Z"/>
      <path class="cls-1" d="m627.61,404.12c12.85-29.7,25.7-59.41,38.55-89.11.97-4.74,1.93-12.28.39-21.19-1.74-10.1-5.83-17.02-11.61-26.57-3.73-6.17-9.46-14.61-17.82-23.7-3.99,5.82-8.08,11.66-12.28,17.52-15.31,21.42-30.82,41.52-46.33,60.36,5.26,5.37,10.62,11.44,15.87,18.29,17.61,22.95,27.48,46.08,33.21,64.39Z"/>
      <path class="cls-1" d="m596.98,249.54c-8.46,11.37-18.51,23.57-30.38,35.99-17.57,18.38-35.01,32.96-50.59,44.37,8.58,3.05,20.99,8.07,35.04,16.03,15.53,8.81,31.16,17.68,44.74,34.98,5.61,7.14,13.81,19.47,19.16,37.65,1.29-2.56,2.92-6.53,3.51-11.52,2.17-18.36-11.78-33.77-26.99-50.1-7.35-7.89-18.37-18.46-33.63-28.99,18.54-22.89,37.08-45.77,55.62-68.66-5.49-3.25-10.98-6.5-16.48-9.75Z"/>
    </g>
    <path class="cls-7" d="m760.97,221.58l-2.3,13.23c-.22,1.53-1.75,2.51-3.28,2.3l-13.12-2.3c-1.53-.22-2.51-1.75-2.3-3.28l2.3-13.12c.22-1.53,1.75-2.52,3.17-2.3l13.23,2.3c1.53.22,2.52,1.64,2.3,3.17Z"/>
    <path class="cls-2" d="m773.87,262.04l-3.61,21.21c-.22,1.53-1.64,2.51-3.17,2.3l-21.21-3.61c-1.53-.33-2.51-1.75-2.3-3.28l3.61-21.21c.33-1.42,1.75-2.52,3.28-2.19l21.21,3.61c1.42.22,2.51,1.64,2.19,3.17Z"/>
    <path class="cls-4" d="m748.5,281.94l-5.47,31.6c-.22,1.53-1.75,2.62-3.28,2.3l-31.6-5.47c-1.53-.22-2.51-1.64-2.3-3.17l5.47-31.6c.22-1.53,1.75-2.62,3.28-2.3l31.6,5.36c1.53.33,2.51,1.75,2.3,3.28Z"/>
    <path class="cls-6" d="m721.71,256.58l-3.72,21.21c-.22,1.53-1.64,2.51-3.17,2.3l-21.21-3.61c-1.53-.33-2.51-1.75-2.3-3.28l3.61-21.1c.33-1.53,1.75-2.62,3.28-2.3l21.21,3.61c1.53.22,2.51,1.75,2.3,3.17Z"/>
    <path class="cls-5" d="m683.11,234.27l-2.19,13.12c-.33,1.53-1.75,2.52-3.28,2.3l-13.12-2.3c-1.53-.22-2.51-1.64-2.3-3.17l2.3-13.23c.22-1.53,1.64-2.51,3.17-2.3l13.23,2.3c1.42.33,2.51,1.75,2.19,3.28Z"/>
    <path class="cls-3" d="m724.88,293.54l-4.26,31.93c-.22,1.53-1.53,2.51-3.06,2.41l-31.93-4.26c-1.53-.22-2.51-1.53-2.41-3.06l4.26-31.93c.22-1.42,1.53-2.51,3.06-2.41l31.93,4.26c1.53.22,2.51,1.53,2.41,3.06Z"/>
    <path class="cls-5" d="m737.67,246.19l-2.3,13.23c-.22,1.53-1.75,2.51-3.17,2.3l-13.23-2.3c-1.53-.22-2.51-1.75-2.3-3.17l2.3-13.23c.22-1.53,1.75-2.52,3.17-2.3l13.23,2.3c1.53.22,2.51,1.75,2.3,3.17Z"/>
  </g>
</svg>