<?xml version="1.0" encoding="UTF-8"?>
<svg id="Layer_1" data-name="Layer 1" xmlns="http://www.w3.org/2000/svg" viewBox="0 0 1080 1080">
  <defs>
    <style>
      .cls-1, .cls-2, .cls-3, .cls-4, .cls-5, .cls-6, .cls-7 {
        fill: #a8bed9;
      }

      .cls-8 {
        fill: #13162b;
      }

      .cls-2 {
        opacity: .6;
      }

      .cls-3 {
        opacity: .9;
      }

      .cls-4 {
        opacity: .7;
      }

      .cls-5 {
        opacity: .25;
      }

      .cls-6 {
        opacity: .45;
      }

      .cls-7 {
        opacity: .4;
      }
    </style>
  </defs>
  <g>
    <g id="_2vbZbg.tif" data-name="2vbZbg.tif">
      <g>
        <path d="m727.66,647.87c14.73,0,27.97-.18,41.19.2,1.92.05,4.79,2.38,5.48,4.28,9.72,26.84,20.05,53.51,28.38,80.79,10.06,32.92-5.11,62.33-37.55,73.98-83.88,30.14-167.87,59.98-251.97,89.51-33.1,11.62-64.88-2.39-76.73-34.71-25.59-69.79-50.1-139.97-75.04-210-.35-.99-.6-2.02-1.19-4.03,14.42,0,28.33-.22,42.21.27,1.78.06,4.16,3.58,5.01,5.95,13.12,36.51,25.91,73.14,39.05,109.65,6.45,17.92,18.36,23.7,36.35,17.37,76.74-27.03,153.45-54.17,230.08-81.51,20.71-7.39,25.93-19.18,18.76-39.86-1.21-3.5-2.38-7.01-4.04-11.9Zm-23.61,139.96c-2.02-6.64-3.6-11.79-5.16-16.95-3.98-13.1-4.22-13.28-17.45-8.6-41.64,14.73-83.22,29.61-124.89,44.25-23.17,8.14-20.7,5.4-13.26,26.79,3.64,10.48,3.98,10.65,14.37,6.99,36.61-12.89,73.23-25.75,109.8-38.75,12.12-4.31,24.1-9.03,36.6-13.73Z"/>
        <path d="m332.34,442.19c-14.36,0-27.58.14-40.79-.16-1.88-.04-4.82-1.86-5.41-3.52-11.28-31.45-23.68-62.59-32.96-94.63-9.02-31.16,6.99-59.54,38.11-71.24,32.52-12.23,65.47-23.34,98.21-35.01,50.04-17.84,100-35.86,150.09-53.55,25.65-9.06,49.6-5.73,68.47,14.59,7.16,7.71,10.4,19.1,15.14,28.95.54,1.13-.25,3.83-1.32,4.67-10.54,8.33-21.26,16.43-32.45,24.98-1.77-4.79-3.27-8.81-4.74-12.84-6.96-19.09-19.02-25.02-38.09-18.26-64.27,22.78-128.49,45.68-192.73,68.54-12.7,4.52-25.47,8.84-38.1,13.54-17.97,6.68-23.76,18.95-17.41,37.2,10.36,29.78,20.97,59.48,31.46,89.22.71,2.02,1.36,4.06,2.51,7.53Z"/>
      </g>
    </g>
    <g>
      <path class="cls-8" d="m258.32,505.57c0-33.01,19.45-48.33,44.79-48.33,16.31,0,29.08,6.88,36.54,19.65,7.47-12.77,20.24-19.65,36.54-19.65,25.34,0,44.8,15.32,44.8,48.33v82.7h-25.15v-82.7c0-17.68-9.43-24.95-21.81-24.95s-21.81,7.47-21.81,24.95v82.7h-25.15v-82.7c0-17.49-9.43-24.95-21.81-24.95s-21.81,7.27-21.81,24.95v82.7h-25.15v-82.7Z"/>
      <path class="cls-8" d="m427.04,539.75c0-29.47,21.61-51.08,52.26-51.08,26.32,0,45.58,15.91,50.29,38.9h-23.57c-4.12-10.41-13.95-17.09-26.72-17.09-17.09,0-28.68,12.18-28.68,29.27s11.59,29.27,28.68,29.27c12.77,0,22.59-6.68,26.72-17.09h23.57c-4.71,22.99-23.97,38.9-50.29,38.9-30.64,0-52.26-21.61-52.26-51.08Z"/>
      <path class="cls-8" d="m569.05,483.17h-38.31v-23.38h101.76v23.38h-38.31v105.1h-25.15v-105.1Z"/>
      <path class="cls-8" d="m611.67,540.73c0-30.84,21.61-52.06,52.45-52.06s51.67,20.63,51.67,51.87v47.74h-21.41v-19.05c-5.9,14.34-19.06,21.61-34.38,21.61-23.58,0-48.33-16.89-48.33-50.09Zm80.74-.98c0-17.09-11.39-29.27-28.49-29.27s-28.68,12.18-28.68,29.27,11.59,29.27,28.68,29.27,28.49-12.18,28.49-29.27Z"/>
      <path class="cls-8" d="m725.2,538.96v-90.17h23.38v56.58c6.88-10.81,18.47-16.7,32.41-16.7,23.58,0,48.33,16.9,48.33,50.1,0,30.84-21.61,52.06-52.45,52.06s-51.67-20.43-51.67-51.86Zm80.55.78c0-17.09-11.59-29.27-28.68-29.27s-28.49,12.18-28.49,29.27,11.39,29.27,28.49,29.27,28.68-12.18,28.68-29.27Z"/>
    </g>
    <g>
      <g>
        <path class="cls-1" d="m635.04,408.04c10.14-26.2,20.27-52.4,30.41-78.6,6.97-10.63,15.05-15.87,19.43-18.25,10.02-5.45,19.77-6.33,28.83-7.15,6.57-.59,12.05-.47,15.8-.25-4.49,12.32-8.94,27.68-11.68,45.64-2.18,14.29-2.82,27.23-2.71,38.32-5.09-.67-12.39-1.34-21.16-1.12-11.2.28-24.64.61-39.17,7.54-4.99,2.38-12.23,6.55-19.74,13.88Z"/>
        <path class="cls-1" d="m730.34,325.34c5.49,1.42,10.98,2.85,16.47,4.27-.77,34.32-1.54,68.63-2.31,102.95-16.33-9.19-30.83-13.42-40.64-15.55-13.59-2.94-24.33-5.06-36.02-.06-3.41,1.46-12.75,5.45-17.51,15.66-5.89,12.64-.23,25.05.7,27.01,1.05,2.21-17.79-16.4-13.77-35.39,2.01-9.49,8.13-15.74,11.5-18.57,2.53-2.12,9.52-7.36,30.82-8.88,9.99-.71,24.67-.71,42.39,3.12,2.79-24.86,5.59-49.71,8.38-74.57Z"/>
        <path class="cls-1" d="m623.39,401.36c11.1-25.66,22.2-51.31,33.3-76.97.84-4.1,1.67-10.61.34-18.3-1.5-8.73-5.04-14.7-10.03-22.95-3.23-5.33-8.17-12.62-15.39-20.47-3.45,5.02-6.98,10.07-10.6,15.14-13.22,18.5-26.62,35.86-40.02,52.14,4.54,4.64,9.17,9.89,13.71,15.8,15.21,19.82,23.74,39.8,28.69,55.62Z"/>
        <path class="cls-1" d="m596.93,267.84c-7.31,9.82-15.99,20.35-26.24,31.08-15.17,15.88-30.24,28.47-43.7,38.32,7.41,2.64,18.13,6.97,30.26,13.85,13.41,7.61,26.91,15.27,38.64,30.21,4.84,6.17,11.93,16.82,16.55,32.52,1.11-2.21,2.52-5.64,3.03-9.95,1.87-15.86-10.18-29.17-23.31-43.27-6.35-6.82-15.87-15.94-29.05-25.04,16.01-19.77,32.03-39.53,48.04-59.3-4.74-2.81-9.49-5.61-14.23-8.42Z"/>
      </g>
      <path class="cls-7" d="m738.57,243.7l-1.98,11.43c-.19,1.32-1.51,2.17-2.83,1.98l-11.33-1.98c-1.32-.19-2.17-1.51-1.98-2.83l1.98-11.33c.19-1.32,1.51-2.17,2.74-1.98l11.43,1.98c1.32.19,2.17,1.42,1.98,2.74Z"/>
      <path class="cls-2" d="m749.72,278.65l-3.12,18.32c-.19,1.32-1.42,2.17-2.74,1.98l-18.32-3.12c-1.32-.28-2.17-1.51-1.98-2.83l3.12-18.32c.28-1.23,1.51-2.17,2.83-1.89l18.32,3.12c1.23.19,2.17,1.42,1.89,2.74Z"/>
      <path class="cls-4" d="m727.8,295.84l-4.72,27.3c-.19,1.32-1.51,2.27-2.83,1.98l-27.3-4.72c-1.32-.19-2.17-1.42-1.98-2.74l4.72-27.3c.19-1.32,1.51-2.27,2.83-1.98l27.29,4.63c1.32.28,2.17,1.51,1.98,2.83Z"/>
      <path class="cls-6" d="m704.66,273.92l-3.21,18.32c-.19,1.32-1.42,2.17-2.74,1.98l-18.32-3.12c-1.32-.28-2.17-1.51-1.98-2.83l3.12-18.23c.28-1.32,1.51-2.27,2.83-1.98l18.32,3.12c1.32.19,2.17,1.51,1.98,2.74Z"/>
      <path class="cls-5" d="m671.32,254.66l-1.89,11.33c-.28,1.32-1.51,2.17-2.83,1.98l-11.33-1.98c-1.32-.19-2.17-1.42-1.98-2.74l1.98-11.43c.19-1.32,1.42-2.17,2.74-1.98l11.43,1.98c1.23.28,2.17,1.51,1.89,2.83Z"/>
      <path class="cls-3" d="m707.4,305.85l-3.68,27.58c-.19,1.32-1.32,2.17-2.64,2.08l-27.58-3.68c-1.32-.19-2.17-1.32-2.08-2.64l3.68-27.58c.19-1.23,1.32-2.17,2.64-2.08l27.58,3.68c1.32.19,2.17,1.32,2.08,2.64Z"/>
      <path class="cls-5" d="m718.45,264.95l-1.98,11.43c-.19,1.32-1.51,2.17-2.74,1.98l-11.43-1.98c-1.32-.19-2.17-1.51-1.98-2.74l1.98-11.43c.19-1.32,1.51-2.17,2.74-1.98l11.43,1.98c1.32.19,2.17,1.51,1.98,2.74Z"/>
    </g>
  </g>
  <g id="oAjPSf.tif">
    <g>
      <path class="cls-1" d="m645.53,671.48c-4.49,6.12-10.8,7.7-17.86,7.3-7.02-.4-12.96-2.88-16.74-9.17-1.83,1.48-3.41,3.05-5.26,4.2-4.95,3.08-10.52,4.28-16.25,4.64-4.84.31-9.71.31-14.56.46-6.49.2-12.15-1.35-15.75-7.5-5.56,6.86-13.34,7.2-21.12,7.5-4.94.19-9.6-.7-13.49-3.91-1.63-1.35-2.93-3.1-4.42-4.71-8.93,7.03-19.83,7.78-30.64,8.47-10.2.65-20.4.25-30.37-2.36-4.91-1.29-9.52-3.27-13.47-6.53-4.72-3.9-7.46-8.96-7.65-15.04-.15-4.62.41-9.27.7-13.9.08-1.31.68-1.92,2.19-1.85,2.85.15,5.72.04,8.78.04-.49,3.04-1.05,5.77-1.36,8.53-.92,8.17,2.5,13.76,10.17,16.98,4.54,1.91,9.33,2.8,14.17,3.02,9.78.45,19.59.37,29.24-1.39,3.71-.68,7.31-2.2,10.79-3.73,3.31-1.45,4.76-4.35,4.8-7.97.02-2.21.25-4.41.29-6.62.02-1.25.52-1.67,1.76-1.59,1.61.1,3.24.1,4.86.02,1.27-.06,1.79.34,1.87,1.69.22,3.93.35,7.89.95,11.77.82,5.31,3.86,7.9,9.2,7.91,3.26,0,6.62-.13,9.77-.89,4.42-1.07,6.72-4.44,7.28-8.83.41-3.25.54-6.54.7-9.82.06-1.29.29-1.99,1.84-1.83,1.54.16,3.12.07,4.68,0,1.35-.07,1.94.42,1.98,1.82.11,3.28.22,6.57.6,9.83.21,1.8.75,3.63,1.52,5.28,1.15,2.46,3.21,4.1,6,4.29,8.02.55,16.07,1.01,23.98-.94,1.99-.49,3.99-1.41,5.69-2.56,4.59-3.1,5.9-8.56,2.92-13.21-1.68-2.62-3.94-4.96-6.29-7.04-3.54-3.13-7.43-5.86-11.08-8.86-1.85-1.51-3.68-3.1-5.23-4.9-4.53-5.24-3.44-12.48,2.52-16,2.66-1.57,5.62-2.65,8.5-3.81,10.33-4.14,20.69-8.22,31.04-12.32.71-.28,1.45-.47,2.4-.78.14.72.32,1.28.33,1.83.06,2.63.05,5.26.13,7.89.03,1.19-.44,1.77-1.59,2.21-11.56,4.45-23.1,8.96-34.64,13.46-.33.13-.64.3-1.2.56.65.62,1.16,1.17,1.73,1.64,4.5,3.67,8.91,7.47,13.54,10.96,7.21,5.45,11.75,12.23,12.32,21.48.29,4.64,2.61,8.47,7.35,9.55,3.42.78,7.16.81,10.65.38,3.08-.38,4.97-2.96,6.01-5.87.94-2.64,1.67-5.36,2.61-7.99,1.95-5.45,4.96-10.11,10.43-12.67,7.49-3.5,16.59-1.56,22.29,4.46,7.11,7.51,7.41,18.85,4.25,26.12-2.45,5.64-7.11,7.97-12.96,8.42-7.49.59-13.93-1.75-19.31-6.98-.3-.29-.61-.58-.93-.84-.13-.11-.32-.15-.66-.31Zm17.87-2.48c2.03-.05,3.85-.33,5.49-1.79,2.76-2.46,2.58-5.43,1.93-8.56-1.21-5.88-6.17-9.49-11.68-8.5-4.24.76-8.46,6.22-8.12,10.55.02.29.08.62.24.84,3,4.18,6.63,7.35,12.14,7.46Z"/>
      <path class="cls-1" d="m558.46,634.92c-2.63-2.62-5.14-5.07-7.57-7.6-.21-.21-.1-1.07.16-1.34,2.15-2.24,4.34-4.45,6.62-6.56.32-.3,1.43-.26,1.76.05,2.17,2.05,4.27,4.18,6.3,6.38.32.34.38,1.43.1,1.73-2.3,2.42-4.71,4.74-7.36,7.36Z"/>
      <path class="cls-1" d="m549.66,626.59c-2.73,2.81-5.31,5.45-8.13,8.36-2.54-2.62-5.05-5.16-7.48-7.77-.21-.22-.11-1.05.14-1.31,2.14-2.25,4.32-4.47,6.58-6.62.31-.3,1.35-.36,1.62-.09,2.51,2.45,4.92,5,7.28,7.43Z"/>
      <path class="cls-1" d="m474.06,695.41c1.4-1.28,2.91-2.55,4.28-3.96,1.2-1.24,2.24-2.63,3.31-3.9,3.19,3.15,5.88,5.8,8.62,8.51-2.65,2.54-5.31,5.1-8.07,7.75-2.5-2.58-5.14-5.31-8.13-8.4Z"/>
    </g>
  </g>
</svg>