<?xml version="1.0" encoding="UTF-8"?>
<svg id="Layer_1" data-name="Layer 1" xmlns="http://www.w3.org/2000/svg" viewBox="0 0 1080 1080">
  <defs>
    <style>
      .cls-1 {
        fill: #fff;
      }

      .cls-2, .cls-3, .cls-4, .cls-5, .cls-6, .cls-7, .cls-8 {
        fill: #a8bed9;
      }

      .cls-3 {
        opacity: .6;
      }

      .cls-4 {
        opacity: .9;
      }

      .cls-5 {
        opacity: .7;
      }

      .cls-6 {
        opacity: .25;
      }

      .cls-7 {
        opacity: .45;
      }

      .cls-8 {
        opacity: .4;
      }
    </style>
  </defs>
  <g>
    <path class="cls-1" d="m40.15,504.71c0-48.68,28.68-71.28,66.05-71.28,24.05,0,42.88,10.14,53.89,28.97,11.01-18.83,29.85-28.97,53.89-28.97,37.37,0,66.06,22.6,66.06,71.28v121.97h-37.08v-121.97c0-26.08-13.91-36.8-32.17-36.8s-32.16,11.01-32.16,36.8v121.97h-37.08v-121.97c0-25.79-13.9-36.8-32.16-36.8s-32.16,10.72-32.16,36.8v121.97h-37.08v-121.97Z"/>
    <path class="cls-1" d="m288.97,555.11c0-43.45,31.87-75.33,77.06-75.33,38.82,0,67.22,23.47,74.17,57.36h-34.76c-6.08-15.35-20.57-25.2-39.4-25.2-25.21,0-42.3,17.96-42.3,43.16s17.09,43.17,42.3,43.17c18.84,0,33.32-9.85,39.4-25.21h34.76c-6.95,33.9-35.35,57.36-74.17,57.36-45.19,0-77.06-31.86-77.06-75.33Z"/>
    <path class="cls-1" d="m498.4,471.68h-56.5v-34.48h150.08v34.48h-56.5v155h-37.08v-155Z"/>
    <path class="cls-1" d="m561.25,556.57c0-45.48,31.87-76.78,77.36-76.78s76.19,30.42,76.19,76.49v70.4h-31.58v-28.1c-8.7,21.15-28.11,31.86-50.7,31.86-34.77,0-71.28-24.91-71.28-73.87Zm119.07-1.45c0-25.21-16.8-43.16-42.01-43.16s-42.3,17.96-42.3,43.16,17.09,43.17,42.3,43.17,42.01-17.96,42.01-43.17Z"/>
    <path class="cls-1" d="m728.68,553.96v-132.98h34.48v83.44c10.14-15.94,27.23-24.63,47.8-24.63,34.77,0,71.28,24.92,71.28,73.88,0,45.48-31.87,76.77-77.36,76.77s-76.19-30.13-76.19-76.48Zm118.79,1.16c0-25.21-17.09-43.16-42.3-43.16s-42.01,17.96-42.01,43.16,16.8,43.17,42.01,43.17,42.3-17.96,42.3-43.17Z"/>
  </g>
  <g>
    <g id="LI4Y9x.tif">
      <g>
        <path class="cls-1" d="m1003.63,570.77c.51-.2,1.08-.48,1.69-.66,4.7-1.43,9.41-2.84,14.33-4.32,3.02,8.4,6,16.62,8.93,24.85,3.23,9.08,6.42,18.17,9.6,27.27,4.86,13.9-1.17,27.15-15.07,32.15-32.75,11.78-65.57,23.37-98.38,34.98-3.6,1.27-7.25,2.7-10.99,3.21-11.57,1.56-21.81-4.81-26.15-16.09-3.02-7.87-5.74-15.85-8.57-23.79-3.28-9.17-6.49-18.37-9.86-27.51-.9-2.43-.79-3.77,2.06-4.54,3.27-.88,6.52-2,9.56-3.48,3.13-1.53,4.1-.38,5,2.52,1.78,5.75,3.89,11.4,5.95,17.06,2.58,7.11,7.96,9.72,15.08,7.23,18.49-6.47,36.96-12.98,55.42-19.53,13.31-4.72,26.61-9.49,39.9-14.27,8.13-2.92,10.5-8.11,7.6-16.25-2.13-5.98-4.15-12-6.2-18-.06-.18.04-.43.1-.82Zm-5.25,71.3c-1.1-3.36-2.23-6.32-3.03-9.37-.68-2.59-1.98-2.95-4.31-2.09-5.43,2.02-10.93,3.88-16.39,5.82-14.23,5.05-28.45,10.16-42.71,15.11-2.44.85-3.12,1.97-2.12,4.32.77,1.81,1.34,3.7,1.98,5.55,1.35,3.88,1.69,4.04,5.69,2.62,17.64-6.24,35.3-12.45,52.93-18.72,2.65-.94,5.22-2.13,7.96-3.25Z"/>
        <path class="cls-1" d="m816.06,470.28c-2.65-6.72-5.42-13.08-4.46-20.16,1.46-10.81,7.96-17.38,18.04-20.94,33.86-11.96,67.74-23.86,101.5-36.07,14.44-5.22,29.38,2.99,32.68,15.31,1.18,4.41,3.09,8.63,4.76,13.2-5.54,1.68-10.83,3.28-16.41,4.97-1.15-3.12-2.3-6.05-3.31-9.02-2.39-7.02-7.96-9.87-15.03-7.37-23.23,8.2-46.43,16.48-69.64,24.73-8.97,3.19-17.95,6.36-26.9,9.59-6.46,2.33-9.19,7.96-6.95,14.5,2.04,5.96,2.34,5.25-3.68,7.39-3.4,1.21-6.78,2.48-10.59,3.88Z"/>
      </g>
    </g>
    <g>
      <g>
        <path class="cls-2" d="m961.93,539.33c6.87-17.75,13.74-35.51,20.6-53.26,4.72-7.2,10.2-10.75,13.17-12.37,6.79-3.7,13.4-4.29,19.54-4.85,4.45-.4,8.16-.32,10.7-.17-3.04,8.35-6.06,18.76-7.91,30.93-1.48,9.68-1.91,18.45-1.84,25.97-3.45-.46-8.4-.91-14.34-.76-7.59.19-16.7.41-26.54,5.11-3.38,1.61-8.29,4.44-13.38,9.41Z"/>
        <path class="cls-2" d="m1026.51,483.28c3.72.96,7.44,1.93,11.16,2.89-.52,23.25-1.04,46.51-1.57,69.76-11.07-6.23-20.89-9.1-27.54-10.53-9.21-1.99-16.49-3.43-24.41-.04-2.31.99-8.64,3.69-11.86,10.61-3.99,8.56-.16,16.97.47,18.3.71,1.5-12.06-11.12-9.33-23.98,1.36-6.43,5.51-10.67,7.79-12.58,1.71-1.44,6.45-4.99,20.88-6.02,6.77-.48,16.72-.48,28.73,2.12,1.89-16.84,3.79-33.69,5.68-50.53Z"/>
        <path class="cls-2" d="m954.03,534.8c7.52-17.39,15.04-34.77,22.56-52.16.57-2.78,1.13-7.19.23-12.4-1.02-5.91-3.41-9.96-6.79-15.55-2.19-3.61-5.54-8.55-10.43-13.87-2.34,3.4-4.73,6.82-7.18,10.26-8.96,12.53-18.04,24.3-27.12,35.33,3.08,3.14,6.22,6.7,9.29,10.7,10.31,13.43,16.09,26.97,19.44,37.69Z"/>
        <path class="cls-2" d="m936.1,444.32c-4.95,6.66-10.83,13.79-17.78,21.06-10.28,10.76-20.49,19.29-29.61,25.97,5.02,1.79,12.29,4.72,20.51,9.39,9.09,5.16,18.24,10.35,26.18,20.47,3.28,4.18,8.08,11.4,11.22,22.04.75-1.5,1.71-3.82,2.06-6.74,1.27-10.75-6.9-19.76-15.8-29.32-4.3-4.62-10.75-10.8-19.68-16.97,10.85-13.39,21.7-26.79,32.55-40.18-3.21-1.9-6.43-3.8-9.64-5.71Z"/>
      </g>
      <path class="cls-8" d="m1032.09,427.96l-1.34,7.74c-.13.9-1.02,1.47-1.92,1.34l-7.68-1.34c-.9-.13-1.47-1.02-1.34-1.92l1.34-7.68c.13-.9,1.02-1.47,1.86-1.34l7.74,1.34c.9.13,1.47.96,1.34,1.86Z"/>
      <path class="cls-3" d="m1039.64,451.64l-2.11,12.42c-.13.9-.96,1.47-1.86,1.34l-12.42-2.11c-.9-.19-1.47-1.02-1.34-1.92l2.11-12.42c.19-.83,1.02-1.47,1.92-1.28l12.42,2.11c.83.13,1.47.96,1.28,1.86Z"/>
      <path class="cls-5" d="m1024.79,463.29l-3.2,18.5c-.13.9-1.02,1.54-1.92,1.34l-18.5-3.2c-.9-.13-1.47-.96-1.34-1.86l3.2-18.5c.13-.9,1.02-1.54,1.92-1.34l18.5,3.14c.9.19,1.47,1.02,1.34,1.92Z"/>
      <path class="cls-7" d="m1009.11,448.44l-2.18,12.42c-.13.9-.96,1.47-1.86,1.34l-12.42-2.11c-.9-.19-1.47-1.02-1.34-1.92l2.11-12.35c.19-.9,1.02-1.54,1.92-1.34l12.42,2.11c.9.13,1.47,1.02,1.34,1.86Z"/>
      <path class="cls-6" d="m986.52,435.39l-1.28,7.68c-.19.9-1.02,1.47-1.92,1.34l-7.68-1.34c-.9-.13-1.47-.96-1.34-1.86l1.34-7.74c.13-.9.96-1.47,1.86-1.34l7.74,1.34c.83.19,1.47,1.02,1.28,1.92Z"/>
      <path class="cls-4" d="m1010.97,470.08l-2.5,18.69c-.13.9-.9,1.47-1.79,1.41l-18.69-2.5c-.9-.13-1.47-.9-1.41-1.79l2.5-18.69c.13-.83.9-1.47,1.79-1.41l18.69,2.5c.9.13,1.47.9,1.41,1.79Z"/>
      <path class="cls-6" d="m1018.45,442.36l-1.34,7.74c-.13.9-1.02,1.47-1.86,1.34l-7.74-1.34c-.9-.13-1.47-1.02-1.34-1.86l1.34-7.74c.13-.9,1.02-1.47,1.86-1.34l7.74,1.34c.9.13,1.47,1.02,1.34,1.86Z"/>
    </g>
  </g>
</svg>