<?xml version="1.0" encoding="UTF-8"?>
<svg id="Layer_1" data-name="Layer 1" xmlns="http://www.w3.org/2000/svg" viewBox="0 0 1080 1080">
  <defs>
    <style>
      .cls-1 {
        fill: #fff;
      }

      .cls-2, .cls-3, .cls-4, .cls-5, .cls-6, .cls-7, .cls-8 {
        fill: #a8bed9;
      }

      .cls-3 {
        opacity: .6;
      }

      .cls-4 {
        opacity: .9;
      }

      .cls-5 {
        opacity: .7;
      }

      .cls-6 {
        opacity: .25;
      }

      .cls-7 {
        opacity: .45;
      }

      .cls-8 {
        opacity: .4;
      }
    </style>
  </defs>
  <g id="oAjPSf.tif">
    <g>
      <path class="cls-1" d="m724.97,593.94c-14.37,19.58-34.53,24.63-57.11,23.33-22.43-1.29-41.43-9.21-53.51-29.32-5.86,4.74-10.91,9.76-16.81,13.43-15.82,9.86-33.64,13.68-51.97,14.85-15.49.99-31.05.99-46.57,1.48-20.74.65-38.83-4.31-50.37-23.98-17.79,21.94-42.64,23.01-67.54,23.98-15.79.62-30.7-2.23-43.13-12.51-5.21-4.31-9.35-9.9-14.12-15.06-28.55,22.49-63.41,24.86-97.96,27.08-32.61,2.09-65.21.81-97.11-7.54-15.7-4.11-30.44-10.47-43.06-20.88-15.1-12.46-23.86-28.66-24.47-48.08-.47-14.78,1.32-29.63,2.22-44.45.25-4.17,2.16-6.15,6.99-5.9,9.12.48,18.29.14,28.06.14-1.57,9.72-3.36,18.45-4.35,27.27-2.93,26.12,7.99,43.99,32.53,54.3,14.51,6.09,29.83,8.95,45.31,9.66,31.26,1.45,62.63,1.2,93.49-4.44,11.85-2.16,23.38-7.04,34.5-11.92,10.58-4.65,15.22-13.91,15.35-25.48.08-7.06.8-14.11.94-21.18.08-3.99,1.67-5.34,5.64-5.09,5.16.32,10.37.31,15.53.06,4.08-.2,5.73,1.08,5.97,5.39.7,12.57,1.13,25.22,3.04,37.63,2.61,16.99,12.34,25.27,29.41,25.29,10.43.01,21.17-.4,31.23-2.83,14.13-3.41,21.49-14.19,23.27-28.24,1.32-10.4,1.74-20.92,2.23-31.41.19-4.12.93-6.37,5.88-5.86,4.93.51,9.97.23,14.95-.01,4.32-.21,6.19,1.34,6.34,5.83.36,10.49.71,21.02,1.92,31.43.67,5.75,2.41,11.62,4.87,16.87,3.69,7.86,10.25,13.12,19.19,13.73,25.66,1.75,51.4,3.22,76.68-3.02,6.37-1.57,12.74-4.5,18.18-8.18,14.68-9.92,18.85-27.37,9.33-42.24-5.36-8.38-12.6-15.87-20.11-22.51-11.32-10-23.74-18.74-35.44-28.33-5.9-4.84-11.75-9.92-16.73-15.66-14.5-16.75-10.99-39.91,8.07-51.16,8.5-5.02,17.97-8.48,27.19-12.17,33.04-13.24,66.16-26.29,99.26-39.38,2.26-.9,4.64-1.51,7.69-2.49.43,2.31,1.02,4.08,1.06,5.86.2,8.4.17,16.81.41,25.21.11,3.81-1.4,5.65-5.08,7.07-36.97,14.22-73.86,28.65-110.76,43.04-1.05.41-2.04.95-3.83,1.79,2.08,1.98,3.7,3.74,5.53,5.24,14.38,11.75,28.48,23.87,43.3,35.06,23.06,17.41,37.55,39.11,39.4,68.67.92,14.83,8.33,27.08,23.5,30.54,10.92,2.49,22.88,2.6,34.05,1.21,9.86-1.22,15.89-9.47,19.2-18.78,3.01-8.44,5.34-17.12,8.35-25.56,6.23-17.43,15.87-32.34,33.34-40.5,23.96-11.2,53.03-5,71.26,14.25,22.73,24,23.69,60.28,13.58,83.52-7.85,18.04-22.73,25.47-41.44,26.93-23.96,1.87-44.54-5.6-61.73-22.33-.96-.93-1.95-1.84-2.99-2.69-.42-.34-1.01-.48-2.1-.98Zm57.14-7.95c6.49-.14,12.33-1.06,17.55-5.73,8.82-7.88,8.24-17.35,6.18-27.38-3.86-18.82-19.72-30.35-37.34-27.19-13.57,2.43-27.04,19.9-25.98,33.74.07.92.27,1.98.78,2.7,9.59,13.37,21.19,23.51,38.81,23.86Z"/>
      <path class="cls-1" d="m446.55,477.03c-8.41-8.37-16.43-16.22-24.22-24.31-.66-.69-.31-3.42.53-4.29,6.89-7.16,13.88-14.23,21.17-20.98,1.02-.95,4.56-.85,5.62.15,6.95,6.55,13.67,13.36,20.13,20.39,1.01,1.1,1.22,4.56.31,5.52-7.35,7.74-15.06,15.15-23.54,23.52Z"/>
      <path class="cls-1" d="m418.4,450.39c-8.74,8.98-16.96,17.44-26,26.72-8.13-8.36-16.15-16.49-23.93-24.83-.66-.71-.35-3.35.45-4.2,6.85-7.21,13.82-14.31,21.02-21.15,1-.95,4.3-1.15,5.17-.3,8.02,7.83,15.74,15.97,23.28,23.76Z"/>
      <path class="cls-1" d="m176.69,670.43c4.47-4.1,9.31-8.15,13.68-12.66,3.85-3.96,7.17-8.42,10.57-12.47,10.19,10.06,18.8,18.55,27.56,27.2-8.47,8.13-16.98,16.3-25.82,24.78-7.99-8.26-16.42-16.97-26-26.86Z"/>
    </g>
  </g>
  <g>
    <g id="LI4Y9x.tif">
      <g>
        <path class="cls-1" d="m976.36,585.58c.6-.24,1.27-.56,1.98-.77,5.51-1.67,11.03-3.33,16.81-5.07,3.54,9.85,7.04,19.48,10.47,29.14,3.78,10.65,7.53,21.31,11.26,31.97,5.7,16.3-1.37,31.83-17.67,37.7-38.4,13.81-76.88,27.4-115.35,41.01-4.22,1.49-8.5,3.17-12.89,3.76-13.56,1.83-25.57-5.64-30.66-18.87-3.55-9.22-6.73-18.59-10.05-27.89-3.85-10.76-7.6-21.54-11.56-32.26-1.05-2.85-.92-4.43,2.42-5.33,3.83-1.03,7.65-2.35,11.2-4.08,3.67-1.79,4.8-.45,5.86,2.95,2.09,6.74,4.57,13.37,6.98,20.01,3.03,8.33,9.33,11.39,17.68,8.47,21.68-7.58,43.34-15.22,64.99-22.89,15.61-5.53,31.2-11.13,46.79-16.73,9.53-3.43,12.31-9.51,8.91-19.06-2.5-7.01-4.87-14.06-7.27-21.11-.07-.22.05-.5.11-.97Zm-6.15,83.6c-1.29-3.94-2.62-7.41-3.55-10.99-.79-3.04-2.32-3.46-5.05-2.45-6.37,2.37-12.81,4.55-19.22,6.83-16.69,5.92-33.35,11.91-50.08,17.72-2.86.99-3.66,2.31-2.48,5.07.9,2.12,1.57,4.33,2.33,6.51,1.58,4.55,1.98,4.73,6.67,3.07,20.69-7.32,41.38-14.6,62.06-21.95,3.11-1.11,6.13-2.49,9.33-3.81Z"/>
        <path class="cls-1" d="m756.43,467.75c-3.11-7.88-6.36-15.33-5.23-23.63,1.72-12.68,9.34-20.38,21.15-24.55,39.7-14.02,79.42-27.98,119.01-42.3,16.93-6.12,34.45,3.5,38.32,17.95,1.39,5.17,3.62,10.11,5.58,15.48-6.5,1.97-12.7,3.85-19.24,5.83-1.35-3.65-2.69-7.09-3.88-10.58-2.8-8.23-9.34-11.57-17.62-8.65-27.23,9.62-54.44,19.32-81.65,29-10.52,3.74-21.05,7.45-31.54,11.25-7.57,2.74-10.77,9.34-8.15,17,2.39,6.99,2.74,6.16-4.32,8.66-3.99,1.41-7.94,2.91-12.42,4.55Z"/>
      </g>
    </g>
    <g>
      <g>
        <path class="cls-2" d="m927.47,548.71c8.05-20.82,16.11-41.63,24.16-62.45,5.54-8.45,11.95-12.61,15.44-14.5,7.96-4.33,15.71-5.03,22.91-5.68,5.22-.47,9.57-.37,12.55-.2-3.57,9.79-7.1,21.99-9.28,36.26-1.73,11.35-2.24,21.64-2.15,30.45-4.05-.53-9.85-1.07-16.82-.89-8.9.22-19.58.49-31.12,5.99-3.96,1.89-9.72,5.21-15.69,11.03Z"/>
        <path class="cls-2" d="m1003.19,482.99c4.36,1.13,8.72,2.26,13.09,3.39-.61,27.27-1.23,54.53-1.84,81.8-12.98-7.3-24.49-10.67-32.29-12.35-10.8-2.34-19.33-4.02-28.62-.05-2.71,1.16-10.13,4.33-13.91,12.44-4.68,10.04-.19,19.9.56,21.46.84,1.76-14.14-13.03-10.94-28.12,1.6-7.54,6.46-12.51,9.14-14.75,2.01-1.69,7.57-5.85,24.49-7.05,7.94-.57,19.6-.57,33.68,2.48,2.22-19.75,4.44-39.5,6.66-59.25Z"/>
        <path class="cls-2" d="m918.21,543.4c8.82-20.39,17.64-40.77,26.46-61.16.67-3.26,1.32-8.43.27-14.54-1.19-6.93-4-11.68-7.97-18.24-2.56-4.24-6.49-10.02-12.23-16.26-2.74,3.99-5.55,8-8.42,12.03-10.51,14.7-21.15,28.49-31.79,41.43,3.61,3.69,7.29,7.85,10.89,12.55,12.09,15.75,18.86,31.62,22.79,44.19Z"/>
        <path class="cls-2" d="m897.19,437.32c-5.81,7.81-12.7,16.17-20.85,24.7-12.06,12.62-24.03,22.62-34.72,30.45,5.89,2.1,14.41,5.54,24.04,11,10.66,6.05,21.38,12.13,30.7,24,3.85,4.9,9.48,13.36,13.15,25.84.88-1.76,2.01-4.48,2.41-7.91,1.49-12.6-8.09-23.17-18.52-34.38-5.04-5.42-12.61-12.67-23.08-19.89,12.72-15.71,25.45-31.41,38.17-47.12-3.77-2.23-7.54-4.46-11.31-6.69Z"/>
      </g>
      <path class="cls-8" d="m1009.73,418.13l-1.58,9.08c-.15,1.05-1.2,1.73-2.25,1.58l-9.01-1.58c-1.05-.15-1.73-1.2-1.58-2.25l1.58-9c.15-1.05,1.2-1.73,2.18-1.58l9.08,1.58c1.05.15,1.73,1.13,1.58,2.18Z"/>
      <path class="cls-3" d="m1018.58,445.9l-2.48,14.56c-.15,1.05-1.12,1.73-2.18,1.58l-14.56-2.48c-1.05-.23-1.73-1.2-1.58-2.25l2.48-14.56c.23-.98,1.2-1.73,2.25-1.5l14.56,2.48c.97.15,1.73,1.13,1.5,2.18Z"/>
      <path class="cls-5" d="m1001.17,459.56l-3.75,21.69c-.15,1.05-1.2,1.8-2.25,1.58l-21.69-3.75c-1.05-.15-1.73-1.13-1.58-2.18l3.75-21.69c.15-1.05,1.2-1.8,2.25-1.58l21.69,3.68c1.05.23,1.73,1.2,1.58,2.25Z"/>
      <path class="cls-7" d="m982.79,442.15l-2.55,14.56c-.15,1.05-1.13,1.73-2.18,1.58l-14.56-2.48c-1.05-.23-1.73-1.2-1.58-2.25l2.48-14.48c.23-1.05,1.2-1.8,2.25-1.58l14.56,2.48c1.05.15,1.73,1.2,1.58,2.18Z"/>
      <path class="cls-6" d="m956.3,426.84l-1.5,9.01c-.23,1.05-1.2,1.73-2.25,1.58l-9-1.58c-1.05-.15-1.73-1.13-1.58-2.18l1.58-9.08c.15-1.05,1.13-1.73,2.18-1.58l9.08,1.58c.98.23,1.73,1.2,1.5,2.25Z"/>
      <path class="cls-4" d="m984.96,467.51l-2.93,21.91c-.15,1.05-1.05,1.73-2.1,1.65l-21.91-2.93c-1.05-.15-1.73-1.05-1.65-2.1l2.93-21.91c.15-.98,1.05-1.73,2.1-1.65l21.91,2.93c1.05.15,1.73,1.05,1.65,2.1Z"/>
      <path class="cls-6" d="m993.74,435.02l-1.58,9.08c-.15,1.05-1.2,1.73-2.18,1.58l-9.08-1.58c-1.05-.15-1.73-1.2-1.58-2.18l1.58-9.08c.15-1.05,1.2-1.73,2.18-1.58l9.08,1.58c1.05.15,1.73,1.2,1.58,2.18Z"/>
    </g>
  </g>
</svg>