<?xml version="1.0" encoding="UTF-8"?>
<svg id="Layer_1" data-name="Layer 1" xmlns="http://www.w3.org/2000/svg" viewBox="0 0 1080 1080">
  <defs>
    <style>
      .cls-1 {
        fill: #fff;
      }

      .cls-2, .cls-3, .cls-4, .cls-5, .cls-6, .cls-7, .cls-8 {
        fill: #a8bed9;
      }

      .cls-3 {
        opacity: .6;
      }

      .cls-4 {
        opacity: .9;
      }

      .cls-5 {
        opacity: .7;
      }

      .cls-6 {
        opacity: .25;
      }

      .cls-7 {
        opacity: .45;
      }

      .cls-8 {
        opacity: .4;
      }
    </style>
  </defs>
  <g>
    <g>
      <path class="cls-1" d="m44.65,454.53c0-48.24,28.42-70.63,65.46-70.63,23.83,0,42.49,10.05,53.4,28.71,10.91-18.66,29.58-28.71,53.4-28.71,37.03,0,65.47,22.4,65.47,70.63v120.87h-36.75v-120.87c0-25.84-13.79-36.47-31.88-36.47s-31.87,10.91-31.87,36.47v120.87h-36.75v-120.87c0-25.56-13.78-36.47-31.87-36.47s-31.87,10.63-31.87,36.47v120.87h-36.75v-120.87Z"/>
      <path class="cls-1" d="m291.23,504.49c0-43.06,31.58-74.65,76.37-74.65,38.47,0,66.61,23.26,73.5,56.85h-34.45c-6.03-15.22-20.38-24.98-39.05-24.98-24.98,0-41.92,17.79-41.92,42.77s16.94,42.78,41.92,42.78c18.67,0,33.02-9.76,39.05-24.98h34.45c-6.89,33.6-35.03,56.85-73.5,56.85-44.78,0-76.37-31.58-76.37-74.65Z"/>
      <path class="cls-1" d="m498.78,421.8h-55.99v-34.17h148.72v34.17h-55.99v153.6h-36.75v-153.6Z"/>
      <path class="cls-1" d="m561.06,505.92c0-45.07,31.58-76.08,76.66-76.08s75.51,30.15,75.51,75.8v69.76h-31.29v-27.85c-8.62,20.96-27.85,31.58-50.24,31.58-34.46,0-70.63-24.69-70.63-73.21Zm118-1.44c0-24.98-16.65-42.77-41.63-42.77s-41.92,17.79-41.92,42.77,16.94,42.78,41.92,42.78,41.63-17.8,41.63-42.78Z"/>
      <path class="cls-1" d="m726.98,503.34v-131.78h34.17v82.69c10.05-15.79,26.99-24.41,47.37-24.41,34.46,0,70.63,24.69,70.63,73.22,0,45.07-31.58,76.08-76.66,76.08s-75.51-29.85-75.51-75.79Zm117.72,1.15c0-24.98-16.94-42.77-41.92-42.77s-41.63,17.79-41.63,42.77,16.65,42.78,41.63,42.78,41.92-17.8,41.92-42.78Z"/>
    </g>
    <g>
      <g id="LI4Y9x.tif">
        <g>
          <path class="cls-1" d="m999.45,520c.5-.2,1.08-.47,1.67-.65,4.66-1.42,9.32-2.81,14.21-4.28,2.99,8.32,5.95,16.47,8.85,24.63,3.2,9,6.36,18.01,9.52,27.02,4.82,13.78-1.16,26.91-14.94,31.86-32.45,11.68-64.98,23.16-97.49,34.66-3.57,1.26-7.19,2.68-10.89,3.18-11.46,1.54-21.61-4.77-25.91-15.95-3-7.79-5.68-15.71-8.5-23.57-3.25-9.09-6.43-18.21-9.77-27.27-.89-2.41-.78-3.74,2.04-4.5,3.24-.87,6.46-1.98,9.47-3.45,3.1-1.52,4.06-.38,4.95,2.49,1.77,5.7,3.86,11.3,5.9,16.91,2.56,7.04,7.89,9.63,14.94,7.16,18.32-6.41,36.63-12.87,54.92-19.35,13.19-4.67,26.37-9.4,39.54-14.14,8.06-2.9,10.4-8.04,7.53-16.11-2.11-5.92-4.11-11.89-6.15-17.84-.06-.18.04-.42.1-.82Zm-5.2,70.66c-1.09-3.33-2.21-6.27-3-9.29-.67-2.57-1.96-2.93-4.27-2.07-5.38,2.01-10.83,3.85-16.25,5.77-14.11,5-28.19,10.06-42.33,14.97-2.42.84-3.09,1.95-2.1,4.28.76,1.79,1.33,3.66,1.97,5.5,1.34,3.85,1.67,4,5.64,2.6,17.48-6.18,34.98-12.34,52.45-18.55,2.63-.94,5.18-2.11,7.88-3.22Z"/>
          <path class="cls-1" d="m813.57,420.42c-2.63-6.66-5.37-12.96-4.42-19.98,1.45-10.71,7.89-17.23,17.87-20.75,33.55-11.85,67.12-23.65,100.59-35.75,14.31-5.18,29.11,2.96,32.38,15.17,1.17,4.37,3.06,8.55,4.72,13.08-5.49,1.66-10.73,3.25-16.26,4.92-1.14-3.09-2.28-5.99-3.28-8.94-2.37-6.96-7.89-9.78-14.89-7.31-23.02,8.13-46.01,16.33-69.01,24.51-8.89,3.16-17.79,6.3-26.66,9.51-6.4,2.31-9.1,7.89-6.89,14.37,2.02,5.91,2.32,5.21-3.65,7.32-3.37,1.19-6.71,2.46-10.49,3.84Z"/>
        </g>
      </g>
      <g>
        <g>
          <path class="cls-2" d="m958.13,488.84c6.81-17.59,13.61-35.19,20.42-52.78,4.68-7.14,10.1-10.66,13.05-12.26,6.73-3.66,13.27-4.25,19.36-4.8,4.41-.4,8.09-.32,10.61-.17-3.01,8.27-6,18.59-7.84,30.65-1.46,9.6-1.9,18.29-1.82,25.73-3.42-.45-8.32-.9-14.21-.75-7.52.19-16.55.41-26.3,5.06-3.35,1.6-8.22,4.4-13.26,9.32Z"/>
          <path class="cls-2" d="m1022.12,433.3c3.69.96,7.37,1.91,11.06,2.87-.52,23.04-1.04,46.09-1.55,69.13-10.97-6.17-20.7-9.01-27.29-10.44-9.13-1.97-16.34-3.4-24.19-.04-2.29.98-8.56,3.66-11.76,10.51-3.96,8.49-.16,16.82.47,18.14.71,1.48-11.95-11.02-9.25-23.76,1.35-6.37,5.46-10.57,7.72-12.47,1.7-1.43,6.4-4.94,20.69-5.96,6.71-.48,16.57-.48,28.47,2.1,1.88-16.69,3.75-33.38,5.63-50.08Z"/>
          <path class="cls-2" d="m950.3,484.35c7.45-17.23,14.91-34.46,22.36-51.69.56-2.75,1.12-7.12.23-12.29-1.01-5.86-3.38-9.87-6.73-15.41-2.17-3.58-5.49-8.47-10.34-13.75-2.32,3.37-4.69,6.76-7.12,10.16-8.88,12.42-17.88,24.08-26.87,35.01,3.05,3.12,6.16,6.64,9.21,10.61,10.22,13.31,15.94,26.73,19.26,37.35Z"/>
          <path class="cls-2" d="m932.54,394.69c-4.91,6.6-10.74,13.67-17.62,20.87-10.19,10.66-20.31,19.12-29.34,25.73,4.98,1.77,12.18,4.68,20.32,9.3,9.01,5.11,18.07,10.26,25.95,20.29,3.25,4.14,8.01,11.3,11.11,21.84.75-1.49,1.7-3.79,2.04-6.68,1.26-10.65-6.83-19.59-15.65-29.06-4.26-4.58-10.66-10.71-19.51-16.81,10.75-13.27,21.51-26.55,32.26-39.82-3.19-1.88-6.37-3.77-9.56-5.65Z"/>
        </g>
        <path class="cls-8" d="m1027.65,378.48l-1.33,7.67c-.13.89-1.02,1.46-1.9,1.33l-7.61-1.33c-.89-.13-1.46-1.02-1.33-1.9l1.33-7.61c.13-.89,1.02-1.46,1.84-1.33l7.67,1.33c.89.13,1.46.95,1.33,1.84Z"/>
        <path class="cls-3" d="m1035.14,401.95l-2.09,12.3c-.13.89-.95,1.46-1.84,1.33l-12.31-2.09c-.89-.19-1.46-1.02-1.33-1.9l2.09-12.3c.19-.82,1.01-1.46,1.9-1.27l12.31,2.09c.82.13,1.46.95,1.27,1.84Z"/>
        <path class="cls-5" d="m1020.42,413.49l-3.17,18.33c-.13.89-1.01,1.52-1.9,1.33l-18.33-3.17c-.89-.13-1.46-.95-1.33-1.84l3.17-18.33c.13-.89,1.01-1.52,1.9-1.33l18.33,3.11c.89.19,1.46,1.02,1.33,1.9Z"/>
        <path class="cls-7" d="m1004.88,398.77l-2.16,12.3c-.13.89-.95,1.46-1.84,1.33l-12.31-2.09c-.89-.19-1.46-1.02-1.33-1.9l2.09-12.24c.19-.89,1.01-1.52,1.9-1.33l12.3,2.09c.89.13,1.46,1.02,1.33,1.84Z"/>
        <path class="cls-6" d="m982.49,385.83l-1.27,7.61c-.19.89-1.01,1.46-1.9,1.33l-7.61-1.33c-.89-.13-1.46-.95-1.33-1.84l1.33-7.67c.13-.89.95-1.46,1.84-1.33l7.67,1.33c.82.19,1.46,1.02,1.27,1.9Z"/>
        <path class="cls-4" d="m1006.72,420.21l-2.47,18.52c-.13.89-.89,1.46-1.78,1.4l-18.52-2.47c-.89-.13-1.46-.89-1.4-1.78l2.47-18.52c.13-.82.89-1.46,1.78-1.4l18.52,2.47c.89.13,1.46.89,1.4,1.78Z"/>
        <path class="cls-6" d="m1014.14,392.75l-1.33,7.67c-.13.89-1.01,1.46-1.84,1.33l-7.67-1.33c-.89-.13-1.46-1.02-1.33-1.84l1.33-7.67c.13-.89,1.02-1.46,1.84-1.33l7.67,1.33c.89.13,1.46,1.01,1.33,1.84Z"/>
      </g>
    </g>
  </g>
  <g id="oAjPSf.tif">
    <g>
      <path class="cls-2" d="m562.27,695.21c-5.9,8.04-14.18,10.11-23.45,9.58-9.21-.53-17.01-3.78-21.97-12.04-2.41,1.95-4.48,4.01-6.9,5.51-6.49,4.05-13.81,5.62-21.34,6.1-6.36.41-12.75.41-19.12.61-8.52.27-15.95-1.77-20.68-9.85-7.3,9.01-17.51,9.45-27.73,9.85-6.48.25-12.6-.92-17.71-5.13-2.14-1.77-3.84-4.07-5.8-6.18-11.72,9.23-26.04,10.21-40.22,11.12-13.39.86-26.78.33-39.87-3.1-6.45-1.69-12.5-4.3-17.68-8.57-6.2-5.11-9.8-11.77-10.05-19.74-.19-6.07.54-12.17.91-18.25.1-1.71.89-2.53,2.87-2.42,3.75.2,7.51.06,11.52.06-.65,3.99-1.38,7.58-1.78,11.2-1.2,10.73,3.28,18.06,13.36,22.3,5.96,2.5,12.25,3.67,18.61,3.97,12.84.6,25.71.49,38.39-1.82,4.87-.89,9.6-2.89,14.17-4.9,4.34-1.91,6.25-5.71,6.3-10.46.03-2.9.33-5.8.39-8.7.03-1.64.69-2.19,2.31-2.09,2.12.13,4.26.13,6.38.02,1.67-.08,2.35.44,2.45,2.21.29,5.16.46,10.35,1.25,15.45,1.07,6.98,5.07,10.38,12.07,10.39,4.28,0,8.69-.16,12.83-1.16,5.8-1.4,8.82-5.83,9.55-11.59.54-4.27.72-8.59.92-12.9.08-1.69.38-2.62,2.41-2.41,2.03.21,4.1.1,6.14,0,1.77-.09,2.54.55,2.61,2.4.15,4.31.29,8.63.79,12.91.28,2.36.99,4.77,2,6.93,1.52,3.23,4.21,5.39,7.88,5.64,10.53.72,21.1,1.32,31.49-1.24,2.62-.64,5.23-1.85,7.47-3.36,6.03-4.07,7.74-11.24,3.83-17.34-2.2-3.44-5.17-6.52-8.26-9.24-4.65-4.1-9.75-7.69-14.55-11.63-2.42-1.99-4.83-4.07-6.87-6.43-5.95-6.88-4.51-16.39,3.31-21,3.49-2.06,7.38-3.48,11.17-5,13.57-5.44,27.16-10.8,40.76-16.17.93-.37,1.9-.62,3.16-1.02.18.95.42,1.67.44,2.41.08,3.45.07,6.9.17,10.35.05,1.56-.58,2.32-2.09,2.9-15.18,5.84-30.33,11.77-45.48,17.67-.43.17-.84.39-1.57.74.85.81,1.52,1.53,2.27,2.15,5.91,4.82,11.69,9.8,17.78,14.39,9.47,7.15,15.42,16.06,16.18,28.2.38,6.09,3.42,11.12,9.65,12.54,4.48,1.02,9.39,1.07,13.98.5,4.05-.5,6.52-3.89,7.89-7.71,1.23-3.47,2.19-7.03,3.43-10.5,2.56-7.16,6.52-13.28,13.69-16.63,9.84-4.6,21.77-2.05,29.26,5.85,9.33,9.85,9.73,24.75,5.58,34.3-3.22,7.41-9.33,10.46-17.01,11.06-9.84.77-18.29-2.3-25.35-9.17-.39-.38-.8-.76-1.23-1.1-.17-.14-.41-.2-.86-.4Zm23.46-3.26c2.66-.06,5.06-.44,7.21-2.35,3.62-3.24,3.38-7.12,2.54-11.24-1.59-7.73-8.1-12.46-15.33-11.16-5.57,1-11.1,8.17-10.67,13.86.03.38.11.81.32,1.11,3.94,5.49,8.7,9.65,15.93,9.8Z"/>
      <path class="cls-2" d="m447.95,647.2c-3.45-3.44-6.75-6.66-9.94-9.98-.27-.28-.13-1.4.22-1.76,2.83-2.94,5.7-5.84,8.69-8.61.42-.39,1.87-.35,2.31.06,2.86,2.69,5.61,5.49,8.27,8.37.41.45.5,1.87.13,2.27-3.02,3.18-6.19,6.22-9.66,9.66Z"/>
      <path class="cls-2" d="m436.39,636.27c-3.59,3.69-6.97,7.16-10.68,10.97-3.34-3.43-6.63-6.77-9.83-10.2-.27-.29-.14-1.38.19-1.73,2.81-2.96,5.67-5.87,8.63-8.68.41-.39,1.77-.47,2.12-.12,3.29,3.22,6.46,6.56,9.56,9.76Z"/>
      <path class="cls-2" d="m337.14,726.62c1.84-1.68,3.82-3.35,5.62-5.2,1.58-1.63,2.94-3.46,4.34-5.12,4.19,4.13,7.72,7.62,11.32,11.17-3.48,3.34-6.97,6.69-10.6,10.17-3.28-3.39-6.74-6.97-10.68-11.03Z"/>
    </g>
  </g>
</svg>