<?xml version="1.0" encoding="UTF-8"?>
<svg id="Layer_1" data-name="Layer 1" xmlns="http://www.w3.org/2000/svg" viewBox="0 0 1080 1080">
  <defs>
    <style>
      .cls-1 {
        opacity: .25;
      }

      .cls-2 {
        opacity: .45;
      }

      .cls-3 {
        opacity: .4;
      }

      .cls-4 {
        opacity: .6;
      }

      .cls-5 {
        opacity: .9;
      }

      .cls-6 {
        opacity: .7;
      }
    </style>
  </defs>
  <g id="_2vbZbg.tif" data-name="2vbZbg.tif">
    <g>
      <path d="m748.81,652.95c15.43,0,29.29-.19,43.13.21,2.01.06,5.02,2.49,5.74,4.49,10.17,28.1,20.99,56.03,29.72,84.59,10.53,34.47-5.35,65.26-39.31,77.46-87.83,31.55-175.76,62.8-263.82,93.72-34.65,12.17-67.93-2.51-80.34-36.35-26.79-73.07-52.46-146.56-78.57-219.88-.37-1.04-.63-2.11-1.25-4.22,15.1,0,29.66-.23,44.19.29,1.86.07,4.36,3.75,5.25,6.23,13.74,38.23,27.13,76.58,40.88,114.81,6.75,18.77,19.23,24.82,38.06,18.19,80.35-28.3,160.67-56.72,240.9-85.34,21.69-7.74,27.15-20.09,19.65-41.73-1.27-3.66-2.49-7.33-4.23-12.46Zm-24.72,146.54c-2.12-6.95-3.77-12.35-5.4-17.74-4.16-13.71-4.42-13.9-18.27-9-43.6,15.42-87.14,31-130.77,46.33-24.26,8.52-21.67,5.65-13.89,28.05,3.81,10.97,4.16,11.15,15.04,7.32,38.33-13.5,76.68-26.96,114.97-40.57,12.69-4.51,25.24-9.45,38.32-14.38Z"/>
      <path d="m334.89,437.59c-15.04,0-28.88.15-42.71-.17-1.97-.05-5.04-1.95-5.67-3.68-11.81-32.93-24.79-65.53-34.51-99.08-9.45-32.63,7.32-62.34,39.9-74.59,34.05-12.81,68.55-24.43,102.83-36.65,52.39-18.67,104.71-37.55,157.15-56.07,26.86-9.48,51.93-6,71.69,15.28,7.5,8.07,10.89,20,15.85,30.31.57,1.19-.26,4.01-1.38,4.89-11.03,8.73-22.26,17.2-33.97,26.15-1.85-5.02-3.42-9.23-4.96-13.45-7.29-19.99-19.91-26.2-39.88-19.12-67.29,23.85-134.53,47.83-201.8,71.76-13.3,4.73-26.67,9.25-39.89,14.17-18.81,7-24.87,19.84-18.23,38.95,10.84,31.19,21.95,62.28,32.94,93.41.75,2.11,1.42,4.25,2.62,7.88Z"/>
    </g>
  </g>
  <g id="oAjPSf.tif">
    <g>
      <path d="m710.55,570.97c-8.67,11.82-20.85,14.87-34.48,14.09-13.54-.78-25.02-5.56-32.31-17.7-3.54,2.86-6.59,5.89-10.15,8.11-9.55,5.95-20.31,8.26-31.38,8.97-9.35.6-18.74.6-28.12.89-12.52.39-23.45-2.61-30.41-14.48-10.74,13.25-25.75,13.89-40.78,14.48-9.53.37-18.53-1.35-26.04-7.55-3.15-2.6-5.65-5.98-8.52-9.09-17.24,13.58-38.29,15.01-59.15,16.35-19.69,1.26-39.38.49-58.63-4.55-9.48-2.48-18.38-6.32-26-12.61-9.12-7.52-14.41-17.31-14.78-29.03-.28-8.92.8-17.89,1.34-26.84.15-2.52,1.31-3.72,4.22-3.56,5.51.29,11.05.08,16.94.08-.95,5.87-2.03,11.14-2.62,16.47-1.77,15.77,4.82,26.56,19.64,32.79,8.76,3.68,18.01,5.4,27.36,5.84,18.88.88,37.81.72,56.45-2.68,7.16-1.31,14.12-4.25,20.83-7.2,6.39-2.81,9.19-8.4,9.27-15.39.05-4.26.49-8.52.57-12.79.05-2.41,1.01-3.22,3.4-3.08,3.12.19,6.26.19,9.38.04,2.46-.12,3.46.65,3.61,3.26.42,7.59.68,15.23,1.83,22.72,1.58,10.26,7.45,15.26,17.75,15.27,6.3,0,12.78-.24,18.86-1.71,8.53-2.06,12.97-8.57,14.05-17.05.8-6.28,1.05-12.63,1.35-18.96.12-2.49.56-3.85,3.55-3.54,2.98.31,6.02.14,9.03,0,2.61-.13,3.74.81,3.83,3.52.22,6.34.43,12.69,1.16,18.98.41,3.47,1.45,7.02,2.94,10.19,2.23,4.74,6.19,7.92,11.59,8.29,15.49,1.06,31.03,1.94,46.3-1.82,3.85-.95,7.69-2.72,10.98-4.94,8.87-5.99,11.38-16.52,5.63-25.5-3.24-5.06-7.61-9.58-12.15-13.59-6.83-6.04-14.34-11.31-21.4-17.1-3.56-2.92-7.1-5.99-10.1-9.46-8.75-10.11-6.63-24.1,4.87-30.89,5.13-3.03,10.85-5.12,16.42-7.35,19.95-8,39.94-15.87,59.93-23.78,1.37-.54,2.8-.91,4.64-1.5.26,1.39.61,2.46.64,3.54.12,5.07.1,10.15.25,15.22.07,2.3-.85,3.41-3.07,4.27-22.32,8.58-44.59,17.3-66.88,25.99-.63.25-1.23.57-2.31,1.08,1.25,1.19,2.23,2.26,3.34,3.16,8.68,7.09,17.2,14.41,26.14,21.17,13.93,10.51,22.68,23.61,23.79,41.46.56,8.96,5.03,16.35,14.19,18.44,6.59,1.5,13.81,1.57,20.56.73,5.95-.74,9.59-5.72,11.59-11.34,1.81-5.1,3.22-10.34,5.04-15.43,3.76-10.53,9.58-19.52,20.13-24.46,14.47-6.76,32.02-3.02,43.02,8.6,13.72,14.49,14.3,36.4,8.2,50.43-4.74,10.89-13.72,15.38-25.02,16.26-14.46,1.13-26.89-3.38-37.27-13.48-.58-.56-1.18-1.11-1.8-1.62-.25-.21-.61-.29-1.27-.59Zm34.5-4.8c3.92-.09,7.44-.64,10.6-3.46,5.32-4.76,4.97-10.48,3.73-16.53-2.33-11.36-11.91-18.32-22.55-16.42-8.19,1.47-16.33,12.02-15.68,20.37.04.56.16,1.19.47,1.63,5.79,8.07,12.8,14.19,23.43,14.4Z"/>
      <path d="m542.45,500.38c-5.08-5.05-9.92-9.8-14.62-14.68-.4-.41-.19-2.06.32-2.59,4.16-4.32,8.38-8.59,12.78-12.67.62-.57,2.76-.51,3.4.09,4.2,3.95,8.25,8.07,12.15,12.31.61.66.74,2.75.19,3.33-4.44,4.67-9.1,9.15-14.21,14.2Z"/>
      <path d="m525.45,484.3c-5.28,5.42-10.24,10.53-15.7,16.14-4.91-5.05-9.75-9.96-14.45-14.99-.4-.43-.21-2.02.27-2.54,4.13-4.35,8.34-8.64,12.69-12.77.6-.57,2.6-.69,3.12-.18,4.84,4.73,9.5,9.65,14.06,14.35Z"/>
      <path d="m379.51,617.16c2.7-2.47,5.62-4.92,8.26-7.64,2.32-2.39,4.33-5.08,6.38-7.53,6.16,6.07,11.35,11.2,16.64,16.43-5.11,4.91-10.25,9.84-15.59,14.96-4.83-4.99-9.92-10.24-15.7-16.22Z"/>
    </g>
  </g>
  <g>
    <g>
      <path d="m657.8,411.37c11.78-30.45,23.56-60.9,35.34-91.34,8.1-12.36,17.48-18.44,22.58-21.21,11.65-6.34,22.97-7.36,33.51-8.31,7.63-.69,14-.55,18.36-.29-5.21,14.32-10.38,32.16-13.57,53.04-2.53,16.61-3.28,31.65-3.15,44.53-5.92-.78-14.4-1.56-24.6-1.31-13.02.32-28.64.71-45.52,8.76-5.79,2.76-14.22,7.61-22.94,16.14Z"/>
      <path d="m768.55,315.25c6.38,1.65,12.76,3.31,19.14,4.96-.9,39.88-1.79,79.76-2.69,119.64-18.98-10.68-35.82-15.6-47.23-18.07-15.8-3.42-28.28-5.88-41.86-.07-3.96,1.69-14.81,6.33-20.34,18.2-6.85,14.68-.27,29.11.81,31.39,1.22,2.57-20.68-19.06-16-41.12,2.34-11.03,9.45-18.3,13.37-21.58,2.94-2.47,11.07-8.55,35.81-10.32,11.61-.83,28.67-.83,49.26,3.63,3.25-28.89,6.49-57.77,9.74-86.66Z"/>
      <path d="m644.26,403.6c12.9-29.82,25.8-59.63,38.7-89.45.97-4.76,1.94-12.33.4-21.27-1.75-10.14-5.86-17.09-11.65-26.67-3.75-6.2-9.49-14.66-17.89-23.79-4.01,5.84-8.11,11.7-12.32,17.59-15.37,21.5-30.94,41.67-46.5,60.59,5.28,5.39,10.66,11.49,15.93,18.36,17.68,23.04,27.59,46.25,33.34,64.64Z"/>
      <path d="m613.51,248.44c-8.49,11.42-18.58,23.65-30.49,36.12-17.64,18.45-35.14,33.08-50.78,44.53,8.61,3.07,21.07,8.1,35.17,16.1,15.59,8.84,31.28,17.75,44.91,35.11,5.63,7.17,13.86,19.55,19.24,37.79,1.29-2.57,2.93-6.55,3.53-11.57,2.18-18.43-11.83-33.9-27.09-50.29-7.38-7.92-18.44-18.53-33.76-29.1,18.61-22.97,37.22-45.94,55.83-68.92-5.51-3.26-11.03-6.52-16.54-9.79Z"/>
    </g>
    <path class="cls-3" d="m778.12,220.38l-2.31,13.28c-.22,1.54-1.76,2.52-3.29,2.3l-13.17-2.3c-1.54-.22-2.52-1.76-2.3-3.29l2.3-13.17c.22-1.54,1.76-2.52,3.18-2.31l13.28,2.31c1.54.22,2.53,1.65,2.31,3.18Z"/>
    <path class="cls-4" d="m791.07,260.99l-3.62,21.29c-.22,1.54-1.65,2.52-3.18,2.3l-21.29-3.62c-1.54-.33-2.52-1.76-2.3-3.29l3.62-21.29c.33-1.43,1.76-2.52,3.29-2.2l21.29,3.62c1.43.22,2.52,1.65,2.19,3.18Z"/>
    <path class="cls-6" d="m765.6,280.97l-5.49,31.72c-.22,1.54-1.76,2.63-3.29,2.31l-31.72-5.49c-1.54-.22-2.52-1.65-2.3-3.18l5.49-31.72c.22-1.54,1.76-2.63,3.29-2.31l31.72,5.38c1.54.33,2.52,1.76,2.3,3.29Z"/>
    <path class="cls-2" d="m738.71,255.5l-3.73,21.29c-.22,1.54-1.65,2.52-3.18,2.3l-21.29-3.62c-1.54-.33-2.52-1.76-2.3-3.29l3.62-21.18c.33-1.54,1.76-2.63,3.29-2.3l21.29,3.62c1.54.22,2.52,1.76,2.3,3.18Z"/>
    <path class="cls-1" d="m699.96,233.11l-2.19,13.17c-.33,1.54-1.76,2.52-3.29,2.31l-13.17-2.31c-1.54-.22-2.52-1.65-2.3-3.18l2.3-13.28c.22-1.54,1.65-2.52,3.18-2.3l13.28,2.3c1.43.33,2.52,1.76,2.19,3.29Z"/>
    <path class="cls-5" d="m741.89,292.6l-4.28,32.05c-.22,1.54-1.54,2.52-3.07,2.41l-32.05-4.28c-1.54-.22-2.52-1.54-2.41-3.07l4.28-32.05c.22-1.43,1.54-2.52,3.07-2.42l32.05,4.28c1.54.22,2.52,1.54,2.41,3.07Z"/>
    <path class="cls-1" d="m754.74,245.08l-2.3,13.28c-.22,1.54-1.76,2.52-3.18,2.3l-13.28-2.3c-1.54-.22-2.52-1.76-2.3-3.18l2.3-13.28c.22-1.54,1.76-2.52,3.18-2.31l13.28,2.31c1.54.22,2.52,1.76,2.3,3.18Z"/>
  </g>
</svg>